<?xml version="1.0" encoding="UTF-8"?>
<!DOCTYPE svg PUBLIC "-//W3C//DTD SVG 1.1//EN" "http://www.w3.org/Graphics/SVG/1.1/DTD/svg11.dtd">
<svg xmlns="http://www.w3.org/2000/svg" version="1.1" width="147px" height="147px" style="shape-rendering:geometricPrecision; text-rendering:geometricPrecision; image-rendering:optimizeQuality; fill-rule:evenodd; clip-rule:evenodd" xmlns:xlink="http://www.w3.org/1999/xlink">
<g><path style="opacity:1" fill="#8c5043" d="M 50.5,2.5 C 49.8166,4.17649 48.4832,4.84316 46.5,4.5C 47.6715,3.65536 49.0048,2.98869 50.5,2.5 Z"/></g>
<g><path style="opacity:0.98" fill="#87564d" d="M 44.5,4.5 C 44.1788,6.04814 43.1788,6.71481 41.5,6.5C 42.2905,5.59872 43.2905,4.93205 44.5,4.5 Z"/></g>
<g><path style="opacity:1" fill="#965041" d="M 12.5,30.5 C 12.5449,33.0772 11.5449,35.0772 9.5,36.5C 10.0292,34.2156 11.0292,32.2156 12.5,30.5 Z"/></g>
<g><path style="opacity:0.78" fill="#7e534e" d="M 8.5,37.5 C 8.71481,39.1788 8.04814,40.1788 6.5,40.5C 6.93205,39.2905 7.59872,38.2905 8.5,37.5 Z"/></g>
<g><path style="opacity:0.91" fill="#745c4c" d="M 6.5,41.5 C 6.71481,43.1788 6.04814,44.1788 4.5,44.5C 4.93205,43.2905 5.59872,42.2905 6.5,41.5 Z"/></g>
<g><path style="opacity:1" fill="#d4241a" d="M 63.5,-0.5 C 69.8333,-0.5 76.1667,-0.5 82.5,-0.5C 118.429,7.42786 139.762,29.4279 146.5,65.5C 146.5,70.5 146.5,75.5 146.5,80.5C 139.883,115.781 119.217,137.781 84.5,146.5C 76.8333,146.5 69.1667,146.5 61.5,146.5C 56.9598,145.051 52.2932,143.718 47.5,142.5C 47.0269,141.094 46.0269,140.427 44.5,140.5C 25.6083,132.776 12.1083,119.443 4,100.5C 2.35875,94.7426 0.858755,89.0759 -0.5,83.5C -0.5,76.1667 -0.5,68.8333 -0.5,61.5C 0.84498,55.8217 2.51165,50.155 4.5,44.5C 6.04814,44.1788 6.71481,43.1788 6.5,41.5C 6.5,41.1667 6.5,40.8333 6.5,40.5C 8.04814,40.1788 8.71481,39.1788 8.5,37.5C 9.16667,37.5 9.5,37.1667 9.5,36.5C 11.5449,35.0772 12.5449,33.0772 12.5,30.5C 20.1104,19.8589 29.777,11.8589 41.5,6.5C 43.1788,6.71481 44.1788,6.04814 44.5,4.5C 45.1667,4.5 45.8333,4.5 46.5,4.5C 48.4832,4.84316 49.8166,4.17649 50.5,2.5C 54.9748,1.60846 59.3082,0.608458 63.5,-0.5 Z"/></g>
<g><path style="opacity:1" fill="#fbf9fa" d="M 66.5,14.5 C 99.8945,14.4364 121.061,30.4364 130,62.5C 132.956,88.3552 123.79,108.689 102.5,123.5C 70.2773,138.77 43.7773,132.103 23,103.5C 10.7261,80.3372 12.0594,58.0039 27,36.5C 37.5561,24.3091 50.7228,16.9758 66.5,14.5 Z"/></g>
<g><path style="opacity:1" fill="#21518f" d="M 64.5,26.5 C 84.7119,24.8141 100.545,32.1475 112,48.5C 124.228,73.7429 119.395,94.9096 97.5,112C 71.9579,125.025 50.4579,120.192 33,97.5C 20.1098,71.5293 25.2764,50.0293 48.5,33C 53.7441,30.315 59.0775,28.1484 64.5,26.5 Z"/></g>
<g><path style="opacity:1" fill="#f9fafb" d="M 71.5,41.5 C 72.3149,42.4293 73.1482,43.4293 74,44.5C 75.5366,50.276 77.3699,55.9426 79.5,61.5C 86.8108,62.3313 94.1441,62.8313 101.5,63C 95.9938,67.1748 90.4938,71.3414 85,75.5C 87.2107,82.2838 88.544,89.2838 89,96.5C 82.9825,92.9918 77.3159,88.9918 72,84.5C 66.6046,88.8972 60.9379,92.8972 55,96.5C 54.3333,95.1667 54.3333,93.8333 55,92.5C 56.6462,87.1024 58.4795,81.7691 60.5,76.5C 54.6789,71.7567 48.6789,67.2567 42.5,63C 49.8333,62.6667 57.1667,62.3333 64.5,62C 67.27,55.2983 69.6033,48.465 71.5,41.5 Z"/></g>
<g><path style="opacity:0.145" fill="#eb9595" d="M 44.5,140.5 C 46.0269,140.427 47.0269,141.094 47.5,142.5C 45.9731,142.573 44.9731,141.906 44.5,140.5 Z"/></g>
</svg>
