<?xml version="1.0" encoding="UTF-8"?>
<!DOCTYPE svg PUBLIC "-//W3C//DTD SVG 1.1//EN" "http://www.w3.org/Graphics/SVG/1.1/DTD/svg11.dtd">
<svg xmlns="http://www.w3.org/2000/svg" version="1.1" width="147px" height="147px" style="shape-rendering:geometricPrecision; text-rendering:geometricPrecision; image-rendering:optimizeQuality; fill-rule:evenodd; clip-rule:evenodd" xmlns:xlink="http://www.w3.org/1999/xlink">
<g><path style="opacity:1" fill="#edf5f1" d="M 88.5,13.5 C 91.2572,14.5122 93.9239,15.5122 96.5,16.5C 94.6208,17.3414 92.6208,17.6747 90.5,17.5C 90.6715,19.4918 90.0049,21.1585 88.5,22.5C 90.8912,23.8086 90.8912,24.8086 88.5,25.5C 87.3279,25.0814 86.3279,24.4147 85.5,23.5C 84.4356,26.0636 85.4356,27.3969 88.5,27.5C 86.5394,28.8337 86.5394,30.5003 88.5,32.5C 89.0318,38.1523 89.3651,43.819 89.5,49.5C 96.2305,49.7736 102.897,49.2736 109.5,48C 108.748,47.3292 108.414,46.4959 108.5,45.5C 108.205,43.2646 108.539,41.2646 109.5,39.5C 110.15,41.4352 110.483,43.4352 110.5,45.5C 110.5,46.8333 110.5,48.1667 110.5,49.5C 112.695,48.3918 114.695,48.5585 116.5,50C 113.964,50.1862 111.631,50.6862 109.5,51.5C 108.5,51.5 107.5,51.5 106.5,51.5C 104.302,51.8751 102.302,52.5418 100.5,53.5C 97.0388,53.1459 94.5388,54.4792 93,57.5C 91.5957,52.3902 90.0957,52.3902 88.5,57.5C 87.7784,57.9175 87.2784,58.5842 87,59.5C 87.0835,55.6887 86.2501,52.3554 84.5,49.5C 82.7487,45.7906 83.2487,42.4573 86,39.5C 87.5516,32.7702 85.3849,27.6036 79.5,24C 71.1733,23.5003 62.84,23.3336 54.5,23.5C 51.7531,23.1866 49.0865,23.52 46.5,24.5C 43.5604,28.722 40.8937,33.0553 38.5,37.5C 37.603,38.5981 36.7697,38.5981 36,37.5C 35.6667,38.1667 35.3333,38.8333 35,39.5C 34.6012,39.2716 34.4346,38.9382 34.5,38.5C 32.3826,36.3455 29.716,35.3455 26.5,35.5C 28.1195,31.3576 30.7862,27.8576 34.5,25C 50.548,12.4878 68.548,8.6545 88.5,13.5 Z"/></g>
<g><path style="opacity:1" fill="#12983f" d="M 90.5,9.5 C 89.7703,11.045 88.437,11.8784 86.5,12C 87.4158,12.2784 88.0825,12.7784 88.5,13.5C 68.548,8.6545 50.548,12.4878 34.5,25C 30.7862,27.8576 28.1195,31.3576 26.5,35.5C 24.7034,33.5937 22.7034,32.927 20.5,33.5C 38.3498,9.91532 61.6832,1.91532 90.5,9.5 Z"/></g>
<g><path style="opacity:0.184" fill="#b6b7b6" d="M 131.5,23.5 C 130.833,22.1667 130.833,22.1667 131.5,23.5 Z"/></g>
<g><path style="opacity:0.008" fill="#bdbebd" d="M 131.5,23.5 C 132.833,24.1667 132.833,24.1667 131.5,23.5 Z"/></g>
<g><path style="opacity:1" fill="#0b973c" d="M 54.5,23.5 C 56.7171,25.0799 59.3837,26.0799 62.5,26.5C 59.9135,27.48 57.2469,27.8134 54.5,27.5C 54.5,30.8333 54.5,34.1667 54.5,37.5C 53.5028,37.4701 52.8361,37.9701 52.5,39C 53.0682,40.8716 53.7349,42.7049 54.5,44.5C 53.624,45.2508 52.624,45.7508 51.5,46C 53.6205,49.7881 56.4538,52.9548 60,55.5C 60.4801,59.5936 59.9801,63.5936 58.5,67.5C 59.1914,69.8912 60.1914,69.8912 61.5,67.5C 62.0468,70.7024 63.0468,73.7024 64.5,76.5C 63.0603,77.9524 61.3936,78.9524 59.5,79.5C 57.5,78.8333 55.5,78.1667 53.5,77.5C 53.6478,82.5152 51.3145,85.0152 46.5,85C 48.9272,83.4455 48.9272,82.2789 46.5,81.5C 42.4602,81.8819 38.7935,80.8819 35.5,78.5C 33.661,76.4729 33.161,74.1396 34,71.5C 36.0711,73.9523 36.9044,73.2857 36.5,69.5C 36.4179,66.2519 34.9179,63.9186 32,62.5C 30.5236,57.9241 30.1902,53.2574 31,48.5C 34.4956,45.5058 36.9956,41.8391 38.5,37.5C 40.8937,33.0553 43.5604,28.722 46.5,24.5C 49.0865,23.52 51.7531,23.1866 54.5,23.5 Z"/></g>
<g><path style="opacity:1" fill="#0a983c" d="M 54.5,23.5 C 62.84,23.3336 71.1733,23.5003 79.5,24C 85.3849,27.6036 87.5516,32.7702 86,39.5C 83.2487,42.4573 82.7487,45.7906 84.5,49.5C 84.4103,56.5851 84.5769,63.5851 85,70.5C 77.2176,74.0958 70.7176,72.4292 65.5,65.5C 64.3372,60.1977 64.1705,54.8643 65,49.5C 66.1667,47.8333 67.3333,46.1667 68.5,44.5C 67.8333,44.1667 67.1667,43.8333 66.5,43.5C 64.1829,44.8198 62.1829,46.4864 60.5,48.5C 57.1964,45.5606 55.1964,41.8939 54.5,37.5C 54.5,34.1667 54.5,30.8333 54.5,27.5C 57.2469,27.8134 59.9135,27.48 62.5,26.5C 59.3837,26.0799 56.7171,25.0799 54.5,23.5 Z"/></g>
<g><path style="opacity:1" fill="#518e5f" d="M 88.5,27.5 C 90.5,27.5 92.5,27.5 94.5,27.5C 93.0821,29.3079 91.0821,29.9746 88.5,29.5C 88.5,30.5 88.5,31.5 88.5,32.5C 86.5394,30.5003 86.5394,28.8337 88.5,27.5 Z"/></g>
<g><path style="opacity:1" fill="#0b963c" d="M 94.5,27.5 C 109.105,26.0753 114.438,32.0753 110.5,45.5C 110.483,43.4352 110.15,41.4352 109.5,39.5C 109.217,38.7109 108.717,38.0442 108,37.5C 107.199,40.367 107.366,43.0336 108.5,45.5C 108.414,46.4959 108.748,47.3292 109.5,48C 102.897,49.2736 96.2305,49.7736 89.5,49.5C 89.3651,43.819 89.0318,38.1523 88.5,32.5C 88.5,31.5 88.5,30.5 88.5,29.5C 91.0821,29.9746 93.0821,29.3079 94.5,27.5 Z"/></g>
<g><path style="opacity:1" fill="#179941" d="M 90.5,9.5 C 117.385,17.5438 133.551,35.2105 139,62.5C 141.562,80.5333 137.729,96.8667 127.5,111.5C 123.481,115.685 119.647,120.018 116,124.5C 111.353,127.572 106.52,130.238 101.5,132.5C 100.602,131.842 99.6016,131.176 98.5,130.5C 100.396,129.534 102.396,129.201 104.5,129.5C 104.5,128.167 104.5,126.833 104.5,125.5C 114.657,120.013 121.99,112.013 126.5,101.5C 128.417,99.3046 129.751,96.638 130.5,93.5C 132.176,92.8166 132.843,91.4832 132.5,89.5C 134.6,80.2724 134.934,70.9391 133.5,61.5C 132.734,56.39 131.067,51.7233 128.5,47.5C 121.732,33.0642 111.065,22.7309 96.5,16.5C 93.9239,15.5122 91.2572,14.5122 88.5,13.5C 88.0825,12.7784 87.4158,12.2784 86.5,12C 88.437,11.8784 89.7703,11.045 90.5,9.5 Z"/></g>
<g><path style="opacity:1" fill="#05973b" d="M 20.5,33.5 C 22.7034,32.927 24.7034,33.5937 26.5,35.5C 29.716,35.3455 32.3826,36.3455 34.5,38.5C 27.969,45.5772 25.469,53.9106 27,63.5C 31.9794,71.6303 29.8128,76.2969 20.5,77.5C 16.7663,77.7381 16.0996,78.9047 18.5,81C 17.0557,83.4485 15.2224,85.6152 13,87.5C 12.6667,88.8333 12.3333,90.1667 12,91.5C 11.4136,88.9807 10.2469,86.9807 8.5,85.5C 5.21668,68.0968 8.05001,51.7635 17,36.5C 17.7589,34.9371 18.9256,33.9371 20.5,33.5 Z"/></g>
<g><path style="opacity:1" fill="#f5f9f7" d="M 96.5,16.5 C 111.065,22.7309 121.732,33.0642 128.5,47.5C 127.265,47.2786 126.265,46.6119 125.5,45.5C 125.104,49.2634 124.104,52.5968 122.5,55.5C 121.88,53.0233 120.88,53.0233 119.5,55.5C 117.163,52.0651 113.83,50.7318 109.5,51.5C 111.631,50.6862 113.964,50.1862 116.5,50C 114.695,48.5585 112.695,48.3918 110.5,49.5C 110.5,48.1667 110.5,46.8333 110.5,45.5C 114.438,32.0753 109.105,26.0753 94.5,27.5C 92.5,27.5 90.5,27.5 88.5,27.5C 85.4356,27.3969 84.4356,26.0636 85.5,23.5C 86.3279,24.4147 87.3279,25.0814 88.5,25.5C 90.8912,24.8086 90.8912,23.8086 88.5,22.5C 90.0049,21.1585 90.6715,19.4918 90.5,17.5C 92.6208,17.6747 94.6208,17.3414 96.5,16.5 Z"/></g>
<g><path style="opacity:1" fill="#76f8ad" d="M 109.5,39.5 C 108.539,41.2646 108.205,43.2646 108.5,45.5C 107.366,43.0336 107.199,40.367 108,37.5C 108.717,38.0442 109.217,38.7109 109.5,39.5 Z"/></g>
<g><path style="opacity:1" fill="#f3f6f4" d="M 128.5,47.5 C 131.067,51.7233 132.734,56.39 133.5,61.5C 134.934,70.9391 134.6,80.2724 132.5,89.5C 131.655,90.6715 130.989,92.0048 130.5,93.5C 129.751,96.638 128.417,99.3046 126.5,101.5C 125.265,101.721 124.265,102.388 123.5,103.5C 122.833,102.833 122.167,102.167 121.5,101.5C 120.468,103.04 119.135,103.54 117.5,103C 118.769,100.861 118.769,98.6948 117.5,96.5C 116.833,98.8333 116.167,101.167 115.5,103.5C 114.702,103.043 114.369,102.376 114.5,101.5C 114.183,97.2984 114.517,93.2984 115.5,89.5C 116.302,90.9516 116.802,92.6183 117,94.5C 117.333,94.1667 117.667,93.8333 118,93.5C 118.499,89.5138 118.666,85.5138 118.5,81.5C 116.5,81.5 114.5,81.5 112.5,81.5C 111.194,80.5326 110.527,79.1993 110.5,77.5C 112.973,77.9118 114.306,76.9118 114.5,74.5C 117.368,74.915 119.535,73.915 121,71.5C 122.271,66.2461 122.771,60.9127 122.5,55.5C 124.104,52.5968 125.104,49.2634 125.5,45.5C 126.265,46.6119 127.265,47.2786 128.5,47.5 Z"/></g>
<g><path style="opacity:1" fill="#588062" d="M 106.5,51.5 C 105.082,53.3079 103.082,53.9746 100.5,53.5C 102.302,52.5418 104.302,51.8751 106.5,51.5 Z"/></g>
<g><path style="opacity:1" fill="#09973c" d="M 106.5,51.5 C 107.5,51.5 108.5,51.5 109.5,51.5C 113.83,50.7318 117.163,52.0651 119.5,55.5C 120.88,53.0233 121.88,53.0233 122.5,55.5C 122.771,60.9127 122.271,66.2461 121,71.5C 119.535,73.915 117.368,74.915 114.5,74.5C 114.785,72.712 114.452,71.0453 113.5,69.5C 111.77,71.7935 110.437,74.2935 109.5,77C 98.9919,77.1697 88.6585,77.6697 78.5,78.5C 75.0613,78.7471 71.728,78.4137 68.5,77.5C 68.5,77.1667 68.5,76.8333 68.5,76.5C 68.2852,74.8212 68.9519,73.8212 70.5,73.5C 72.099,73.2322 73.4324,73.5655 74.5,74.5C 75.964,75.1599 77.6307,75.4932 79.5,75.5C 81.6397,75.4439 83.3064,74.7773 84.5,73.5C 85.7348,73.2786 86.7348,72.6119 87.5,71.5C 88.4933,66.8804 88.8266,62.2137 88.5,57.5C 90.0957,52.3902 91.5957,52.3902 93,57.5C 94.5388,54.4792 97.0388,53.1459 100.5,53.5C 103.082,53.9746 105.082,53.3079 106.5,51.5 Z"/></g>
<g><path style="opacity:1" fill="#dae6de" d="M 54.5,37.5 C 55.1964,41.8939 57.1964,45.5606 60.5,48.5C 62.1829,46.4864 64.1829,44.8198 66.5,43.5C 67.1667,43.8333 67.8333,44.1667 68.5,44.5C 67.3333,46.1667 66.1667,47.8333 65,49.5C 64.1705,54.8643 64.3372,60.1977 65.5,65.5C 70.7176,72.4292 77.2176,74.0958 85,70.5C 84.5769,63.5851 84.4103,56.5851 84.5,49.5C 86.2501,52.3554 87.0835,55.6887 87,59.5C 87.2784,58.5842 87.7784,57.9175 88.5,57.5C 88.8266,62.2137 88.4933,66.8804 87.5,71.5C 86.7348,72.6119 85.7348,73.2786 84.5,73.5C 81.272,74.4137 77.9387,74.7471 74.5,74.5C 73.4324,73.5655 72.099,73.2322 70.5,73.5C 69.828,72.7326 68.9947,72.0659 68,71.5C 67.2204,73.3869 67.3871,75.0536 68.5,76.5C 68.5,76.8333 68.5,77.1667 68.5,77.5C 69.6936,78.7773 71.3603,79.4439 73.5,79.5C 75.3693,79.4932 77.036,79.1599 78.5,78.5C 88.6585,77.6697 98.9919,77.1697 109.5,77C 110.437,74.2935 111.77,71.7935 113.5,69.5C 114.452,71.0453 114.785,72.712 114.5,74.5C 114.306,76.9118 112.973,77.9118 110.5,77.5C 110.527,79.1993 111.194,80.5326 112.5,81.5C 97.8333,81.5 83.1667,81.5 68.5,81.5C 68.1718,86.8746 68.5052,92.2079 69.5,97.5C 72.5561,99.2892 75.8894,99.9559 79.5,99.5C 80.5,99.5 81.5,99.5 82.5,99.5C 82.5,97.1667 82.5,94.8333 82.5,92.5C 82.56,91.9569 82.8933,91.6236 83.5,91.5C 84.4841,94.4281 84.8174,97.4281 84.5,100.5C 91.8526,100.021 98.8526,101.021 105.5,103.5C 104.596,104.209 104.263,105.209 104.5,106.5C 97.295,104.633 89.9616,103.633 82.5,103.5C 76.9871,102.184 71.3204,102.184 65.5,103.5C 65.1373,104.183 64.8039,104.85 64.5,105.5C 64.3354,108.518 64.502,111.518 65,114.5C 65.3603,112.579 66.1936,110.912 67.5,109.5C 68.1667,112.5 68.8333,115.5 69.5,118.5C 70.2875,115.152 71.1208,111.818 72,108.5C 72.3238,113.365 73.8238,117.698 76.5,121.5C 73.8333,120.833 71.1667,120.167 68.5,119.5C 63.7662,118.603 61.4329,115.769 61.5,111C 61.6155,108.958 61.9488,106.958 62.5,105C 64.1484,103.519 65.1484,101.685 65.5,99.5C 64.5859,93.5405 64.2526,87.5405 64.5,81.5C 61.9512,81.3874 59.6179,82.0541 57.5,83.5C 57.1667,83.1667 56.8333,82.8333 56.5,82.5C 57.7701,81.7124 58.7701,80.7124 59.5,79.5C 61.3936,78.9524 63.0603,77.9524 64.5,76.5C 63.0468,73.7024 62.0468,70.7024 61.5,67.5C 60.1914,69.8912 59.1914,69.8912 58.5,67.5C 59.9801,63.5936 60.4801,59.5936 60,55.5C 56.4538,52.9548 53.6205,49.7881 51.5,46C 52.624,45.7508 53.624,45.2508 54.5,44.5C 53.7349,42.7049 53.0682,40.8716 52.5,39C 52.8361,37.9701 53.5028,37.4701 54.5,37.5 Z"/></g>
<g><path style="opacity:1" fill="#6e7569" d="M 70.5,73.5 C 68.9519,73.8212 68.2852,74.8212 68.5,76.5C 67.3871,75.0536 67.2204,73.3869 68,71.5C 68.9947,72.0659 69.828,72.7326 70.5,73.5 Z"/></g>
<g><path style="opacity:1" fill="#616967" d="M 84.5,73.5 C 83.3064,74.7773 81.6397,75.4439 79.5,75.5C 77.6307,75.4932 75.964,75.1599 74.5,74.5C 77.9387,74.7471 81.272,74.4137 84.5,73.5 Z"/></g>
<g><path style="opacity:1" fill="#a2fed1" d="M 68.5,77.5 C 71.728,78.4137 75.0613,78.7471 78.5,78.5C 77.036,79.1599 75.3693,79.4932 73.5,79.5C 71.3603,79.4439 69.6936,78.7773 68.5,77.5 Z"/></g>
<g><path style="opacity:1" fill="#11993f" d="M 59.5,79.5 C 58.7701,80.7124 57.7701,81.7124 56.5,82.5C 56.8333,82.8333 57.1667,83.1667 57.5,83.5C 59.6179,82.0541 61.9512,81.3874 64.5,81.5C 64.2526,87.5405 64.5859,93.5405 65.5,99.5C 65.1484,101.685 64.1484,103.519 62.5,105C 61.9488,106.958 61.6155,108.958 61.5,111C 61.4329,115.769 63.7662,118.603 68.5,119.5C 67.3064,120.777 65.6397,121.444 63.5,121.5C 58.7887,121.401 55.2887,119.401 53,115.5C 52.7811,116.938 52.2811,118.271 51.5,119.5C 50.8313,117.369 50.1646,115.369 49.5,113.5C 49.0133,112.527 48.5133,111.527 48,110.5C 47.5014,114.152 47.3347,117.818 47.5,121.5C 46.5,121.5 45.5,121.5 44.5,121.5C 41.8333,120.167 39.1667,120.167 36.5,121.5C 36.7947,123.735 36.4614,125.735 35.5,127.5C 30.4814,124.172 26.1481,120.172 22.5,115.5C 22.7982,112.465 22.7982,109.465 22.5,106.5C 22.6667,106.167 22.8333,105.833 23,105.5C 23.9154,107.98 25.4154,108.647 27.5,107.5C 26.6384,105.748 26.6384,103.748 27.5,101.5C 32.0395,108.049 37.3728,114.049 43.5,119.5C 44.5529,118.562 45.2196,117.395 45.5,116C 45.2792,112.67 44.2792,109.836 42.5,107.5C 41.8333,109.167 41.1667,110.833 40.5,112.5C 39.6733,109.868 38.84,107.202 38,104.5C 37.6322,105.91 36.7989,106.91 35.5,107.5C 34.5344,105.604 34.2011,103.604 34.5,101.5C 33.1667,101.5 31.8333,101.5 30.5,101.5C 30.5,99.8333 30.5,98.1667 30.5,96.5C 30.1984,93.9407 30.5318,91.6074 31.5,89.5C 33.7541,90.4151 35.7541,91.7484 37.5,93.5C 39.1788,93.7148 40.1788,93.0481 40.5,91.5C 50.7283,88.8458 50.0617,87.5125 38.5,87.5C 38.5,86.1667 38.5,84.8333 38.5,83.5C 41.6981,84.0356 44.3647,83.369 46.5,81.5C 48.9272,82.2789 48.9272,83.4455 46.5,85C 51.3145,85.0152 53.6478,82.5152 53.5,77.5C 55.5,78.1667 57.5,78.8333 59.5,79.5 Z"/></g>
<g><path style="opacity:1" fill="#0c963d" d="M 20.5,77.5 C 22.3717,79.0615 24.7051,80.0615 27.5,80.5C 27.1373,81.1835 26.8039,81.8501 26.5,82.5C 18.5,83.1667 18.5,83.8333 26.5,84.5C 27.0967,84.7352 27.4301,85.2352 27.5,86C 25.0253,91.3348 25.0253,96.5015 27.5,101.5C 26.6384,103.748 26.6384,105.748 27.5,107.5C 25.4154,108.647 23.9154,107.98 23,105.5C 22.8333,105.833 22.6667,106.167 22.5,106.5C 22.7982,109.465 22.7982,112.465 22.5,115.5C 14.6162,107.063 9.94951,97.0626 8.5,85.5C 10.2469,86.9807 11.4136,88.9807 12,91.5C 12.3333,90.1667 12.6667,88.8333 13,87.5C 15.2224,85.6152 17.0557,83.4485 18.5,81C 16.0996,78.9047 16.7663,77.7381 20.5,77.5 Z"/></g>
<g><path style="opacity:1" fill="#7cdfa5" d="M 26.5,82.5 C 26.5,83.1667 26.5,83.8333 26.5,84.5C 18.5,83.8333 18.5,83.1667 26.5,82.5 Z"/></g>
<g><path style="opacity:1" fill="#eaf4ee" d="M 38.5,37.5 C 36.9956,41.8391 34.4956,45.5058 31,48.5C 30.1902,53.2574 30.5236,57.9241 32,62.5C 34.9179,63.9186 36.4179,66.2519 36.5,69.5C 36.9044,73.2857 36.0711,73.9523 34,71.5C 33.161,74.1396 33.661,76.4729 35.5,78.5C 38.7935,80.8819 42.4602,81.8819 46.5,81.5C 44.3647,83.369 41.6981,84.0356 38.5,83.5C 38.5,84.8333 38.5,86.1667 38.5,87.5C 50.0617,87.5125 50.7283,88.8458 40.5,91.5C 39.2905,91.9321 38.2905,92.5987 37.5,93.5C 35.7541,91.7484 33.7541,90.4151 31.5,89.5C 31.44,88.9569 31.1067,88.6236 30.5,88.5C 29.1997,91.3092 29.1997,93.9759 30.5,96.5C 30.5,98.1667 30.5,99.8333 30.5,101.5C 31.8333,101.5 33.1667,101.5 34.5,101.5C 34.2011,103.604 34.5344,105.604 35.5,107.5C 36.7989,106.91 37.6322,105.91 38,104.5C 38.84,107.202 39.6733,109.868 40.5,112.5C 40.56,113.043 40.8933,113.376 41.5,113.5C 42.4656,111.604 42.7989,109.604 42.5,107.5C 44.2792,109.836 45.2792,112.67 45.5,116C 45.2196,117.395 44.5529,118.562 43.5,119.5C 37.3728,114.049 32.0395,108.049 27.5,101.5C 25.0253,96.5015 25.0253,91.3348 27.5,86C 27.4301,85.2352 27.0967,84.7352 26.5,84.5C 26.5,83.8333 26.5,83.1667 26.5,82.5C 26.8039,81.8501 27.1373,81.1835 27.5,80.5C 24.7051,80.0615 22.3717,79.0615 20.5,77.5C 29.8128,76.2969 31.9794,71.6303 27,63.5C 25.469,53.9106 27.969,45.5772 34.5,38.5C 34.4346,38.9382 34.6012,39.2716 35,39.5C 35.3333,38.8333 35.6667,38.1667 36,37.5C 36.7697,38.5981 37.603,38.5981 38.5,37.5 Z"/></g>
<g><path style="opacity:1" fill="#05983b" d="M 112.5,81.5 C 114.5,81.5 116.5,81.5 118.5,81.5C 118.666,85.5138 118.499,89.5138 118,93.5C 117.667,93.8333 117.333,94.1667 117,94.5C 116.802,92.6183 116.302,90.9516 115.5,89.5C 115.44,88.9569 115.107,88.6236 114.5,88.5C 112.935,92.6865 112.268,97.0199 112.5,101.5C 110.562,103.163 108.228,103.829 105.5,103.5C 98.8526,101.021 91.8526,100.021 84.5,100.5C 84.8174,97.4281 84.4841,94.4281 83.5,91.5C 82.8933,91.6236 82.56,91.9569 82.5,92.5C 81.8953,94.9741 80.8953,97.3074 79.5,99.5C 75.8894,99.9559 72.5561,99.2892 69.5,97.5C 68.5052,92.2079 68.1718,86.8746 68.5,81.5C 83.1667,81.5 97.8333,81.5 112.5,81.5 Z"/></g>
<g><path style="opacity:1" fill="#6d8073" d="M 40.5,91.5 C 40.1788,93.0481 39.1788,93.7148 37.5,93.5C 38.2905,92.5987 39.2905,91.9321 40.5,91.5 Z"/></g>
<g><path style="opacity:1" fill="#6a7962" d="M 132.5,89.5 C 132.843,91.4832 132.176,92.8166 130.5,93.5C 130.989,92.0048 131.655,90.6715 132.5,89.5 Z"/></g>
<g><path style="opacity:1" fill="#828b80" d="M 31.5,89.5 C 30.5318,91.6074 30.1984,93.9407 30.5,96.5C 29.1997,93.9759 29.1997,91.3092 30.5,88.5C 31.1067,88.6236 31.44,88.9569 31.5,89.5 Z"/></g>
<g><path style="opacity:1" fill="#acefcc" d="M 115.5,89.5 C 114.517,93.2984 114.183,97.2984 114.5,101.5C 113.833,101.5 113.167,101.5 112.5,101.5C 112.268,97.0199 112.935,92.6865 114.5,88.5C 115.107,88.6236 115.44,88.9569 115.5,89.5 Z"/></g>
<g><path style="opacity:1" fill="#8efed3" d="M 82.5,92.5 C 82.5,94.8333 82.5,97.1667 82.5,99.5C 81.5,99.5 80.5,99.5 79.5,99.5C 80.8953,97.3074 81.8953,94.9741 82.5,92.5 Z"/></g>
<g><path style="opacity:1" fill="#517158" d="M 82.5,103.5 C 76.2829,103.028 70.2829,103.695 64.5,105.5C 64.8039,104.85 65.1373,104.183 65.5,103.5C 71.3204,102.184 76.9871,102.184 82.5,103.5 Z"/></g>
<g><path style="opacity:1" fill="#f2f7f5" d="M 126.5,101.5 C 121.99,112.013 114.657,120.013 104.5,125.5C 101.86,126.82 99.1932,128.153 96.5,129.5C 97.1712,128.153 97.1712,126.986 96.5,126C 93.587,123.071 90.587,122.905 87.5,125.5C 86.5713,124.311 86.238,122.978 86.5,121.5C 91.9848,122.305 97.3181,121.471 102.5,119C 105.279,115.158 105.946,110.991 104.5,106.5C 104.263,105.209 104.596,104.209 105.5,103.5C 108.228,103.829 110.562,103.163 112.5,101.5C 113.167,101.5 113.833,101.5 114.5,101.5C 114.369,102.376 114.702,103.043 115.5,103.5C 116.167,101.167 116.833,98.8333 117.5,96.5C 118.769,98.6948 118.769,100.861 117.5,103C 119.135,103.54 120.468,103.04 121.5,101.5C 122.167,102.167 122.833,102.833 123.5,103.5C 124.265,102.388 125.265,101.721 126.5,101.5 Z"/></g>
<g><path style="opacity:1" fill="#0a983c" d="M 82.5,103.5 C 89.9616,103.633 97.295,104.633 104.5,106.5C 105.946,110.991 105.279,115.158 102.5,119C 97.3181,121.471 91.9848,122.305 86.5,121.5C 83.1667,121.5 79.8333,121.5 76.5,121.5C 73.8238,117.698 72.3238,113.365 72,108.5C 71.1208,111.818 70.2875,115.152 69.5,118.5C 68.8333,115.5 68.1667,112.5 67.5,109.5C 66.1936,110.912 65.3603,112.579 65,114.5C 64.502,111.518 64.3354,108.518 64.5,105.5C 70.2829,103.695 76.2829,103.028 82.5,103.5 Z"/></g>
<g><path style="opacity:1" fill="#7bfdb7" d="M 42.5,107.5 C 42.7989,109.604 42.4656,111.604 41.5,113.5C 40.8933,113.376 40.56,113.043 40.5,112.5C 41.1667,110.833 41.8333,109.167 42.5,107.5 Z"/></g>
<g><path style="opacity:1" fill="#96fccf" d="M 49.5,113.5 C 48.8333,116.167 48.1667,118.833 47.5,121.5C 47.3347,117.818 47.5014,114.152 48,110.5C 48.5133,111.527 49.0133,112.527 49.5,113.5 Z"/></g>
<g><path style="opacity:1" fill="#86f7b9" d="M 36.5,121.5 C 39.1667,120.167 41.8333,120.167 44.5,121.5C 42.2646,121.205 40.2646,121.539 38.5,122.5C 37.8333,122.167 37.1667,121.833 36.5,121.5 Z"/></g>
<g><path style="opacity:1" fill="#f6f9f7" d="M 49.5,113.5 C 50.1646,115.369 50.8313,117.369 51.5,119.5C 52.2811,118.271 52.7811,116.938 53,115.5C 55.2887,119.401 58.7887,121.401 63.5,121.5C 65.6397,121.444 67.3064,120.777 68.5,119.5C 71.1667,120.167 73.8333,120.833 76.5,121.5C 79.8333,121.5 83.1667,121.5 86.5,121.5C 86.238,122.978 86.5713,124.311 87.5,125.5C 90.587,122.905 93.587,123.071 96.5,126C 97.1712,126.986 97.1712,128.153 96.5,129.5C 95.0048,129.989 93.6715,130.655 92.5,131.5C 74.6282,135.883 57.6282,133.883 41.5,125.5C 40.452,124.452 39.452,123.452 38.5,122.5C 40.2646,121.539 42.2646,121.205 44.5,121.5C 45.5,121.5 46.5,121.5 47.5,121.5C 48.1667,118.833 48.8333,116.167 49.5,113.5 Z"/></g>
<g><path style="opacity:1" fill="#2f8d47" d="M 104.5,125.5 C 104.5,126.833 104.5,128.167 104.5,129.5C 102.396,129.201 100.396,129.534 98.5,130.5C 99.6016,131.176 100.602,131.842 101.5,132.5C 98.4824,132.296 95.4824,131.963 92.5,131.5C 93.6715,130.655 95.0048,129.989 96.5,129.5C 99.1932,128.153 101.86,126.82 104.5,125.5 Z"/></g>
<g><path style="opacity:1" fill="#149840" d="M 36.5,121.5 C 37.1667,121.833 37.8333,122.167 38.5,122.5C 39.452,123.452 40.452,124.452 41.5,125.5C 57.6282,133.883 74.6282,135.883 92.5,131.5C 95.4824,131.963 98.4824,132.296 101.5,132.5C 97.3939,135.504 92.7273,137.338 87.5,138C 68.4915,141.969 51.1582,138.469 35.5,127.5C 36.4614,125.735 36.7947,123.735 36.5,121.5 Z"/></g>
</svg>
