<?xml version="1.0" standalone="no"?>
<!DOCTYPE svg PUBLIC "-//W3C//DTD SVG 20010904//EN"
 "http://www.w3.org/TR/2001/REC-SVG-20010904/DTD/svg10.dtd">
<svg version="1.0" xmlns="http://www.w3.org/2000/svg"
 width="147.000000pt" height="147.000000pt" viewBox="0 0 147.000000 147.000000"
 preserveAspectRatio="xMidYMid meet">

<g transform="translate(0.000000,147.000000) scale(0.100000,-0.100000)"
fill="#000000" stroke="none">
<path d="M1276 1277 c-51 -133 -126 -299 -190 -417 -41 -76 -73 -118 -159
-207 l-109 -112 -14 -93 c-20 -134 -20 -134 24 -86 26 29 69 57 147 94 60 29
110 52 112 51 1 -2 -18 -66 -42 -142 -25 -77 -54 -171 -65 -210 l-19 -70 72
76 c190 199 183 188 238 381 l49 173 1 328 c0 181 -1 330 -3 332 -2 2 -21 -42
-42 -98z m-216 -615 c0 -4 -15 -32 -32 -62 -39 -64 -87 -94 -137 -84 l-32 7
57 51 c78 70 144 111 144 88z"/>
<path d="M130 1043 l0 -331 44 -160 c25 -88 51 -172 58 -186 18 -35 241 -271
245 -259 2 5 -24 96 -57 202 -34 107 -59 195 -58 197 2 2 51 -19 108 -47 69
-33 121 -66 151 -95 l46 -45 -13 63 c-6 35 -15 83 -18 108 -6 40 -18 56 -109
150 -137 143 -178 217 -377 690 l-19 45 -1 -332z m242 -397 c32 -21 35 -22 31
-5 -7 27 12 24 60 -10 40 -28 126 -110 117 -111 -55 -6 -104 -6 -139 -1 -41 6
-46 10 -82 70 -54 89 -51 101 13 57z"/>
</g>
</svg>
