<?xml version="1.0" standalone="no"?>
<!DOCTYPE svg PUBLIC "-//W3C//DTD SVG 20010904//EN"
 "http://www.w3.org/TR/2001/REC-SVG-20010904/DTD/svg10.dtd">
<svg version="1.0" xmlns="http://www.w3.org/2000/svg"
 width="147.000000pt" height="147.000000pt" viewBox="0 0 147.000000 147.000000"
 preserveAspectRatio="xMidYMid meet">
<metadata>
Created by potrace 1.16, written by Peter Selinger 2001-2019
</metadata>
<g transform="translate(0.000000,147.000000) scale(0.100000,-0.100000)"
fill="#000000" stroke="none">
<path d="M665 1463 c-63 -5 -146 -25 -189 -45 -22 -10 -45 -18 -52 -18 -7 0
-14 -3 -16 -7 -1 -5 -23 -18 -48 -31 -64 -33 -199 -164 -239 -233 -19 -32 -52
-99 -62 -126 -5 -13 -13 -33 -18 -45 -16 -38 -23 -88 -28 -193 -15 -318 182
-604 492 -712 73 -25 92 -28 225 -28 156 0 192 7 318 66 215 100 369 310 402
550 42 303 -108 600 -372 738 -125 66 -272 96 -413 84z m232 -89 c226 -59 409
-242 468 -469 21 -78 21 -242 0 -320 -8 -33 -34 -98 -57 -145 -70 -145 -218
-270 -378 -321 -79 -26 -245 -36 -310 -20 -25 7 -55 14 -68 17 -105 22 -248
113 -322 205 -127 159 -177 374 -131 571 83 358 442 575 798 482z"/>
<path d="M453 1233 l-113 -4 0 -79 0 -80 75 0 c41 0 75 -4 75 -8 0 -5 -14 -21
-30 -37 -81 -78 -125 -194 -118 -310 6 -86 36 -158 101 -235 l46 -55 -75 -3
-74 -3 0 -84 0 -85 400 0 400 0 0 24 c0 12 -3 51 -6 84 l-7 61 -74 3 -74 3 51
60 c70 82 93 147 94 260 0 109 -22 171 -95 256 l-48 57 31 6 c17 3 50 6 74 6
28 0 44 4 44 13 1 6 3 45 7 85 l5 72 -288 -2 c-159 -1 -340 -4 -401 -5z m383
-293 c105 -46 151 -189 95 -298 -44 -85 -124 -128 -222 -119 -196 17 -269 256
-121 389 23 21 54 40 69 44 16 3 33 7 38 9 19 8 100 -7 141 -25z"/>
</g>
</svg>
