<?xml version="1.0" standalone="no"?>
<!DOCTYPE svg PUBLIC "-//W3C//DTD SVG 20010904//EN"
 "http://www.w3.org/TR/2001/REC-SVG-20010904/DTD/svg10.dtd">
<svg version="1.0" xmlns="http://www.w3.org/2000/svg"
 width="147.000000pt" height="147.000000pt" viewBox="0 0 147.000000 147.000000"
 preserveAspectRatio="xMidYMid meet">
<metadata>
Created by potrace 1.16, written by Peter Selinger 2001-2019
</metadata>
<g transform="translate(0.000000,147.000000) scale(0.100000,-0.100000)"
fill="#000000" stroke="none">
<path d="M1052 1327 c-12 -23 -47 -71 -77 -106 -30 -34 -55 -66 -55 -72 0 -5
-9 -9 -20 -9 -11 0 -20 7 -20 15 0 18 -12 19 -28 3 -9 -9 -12 -9 -12 2 0 10
-4 9 -18 -3 -39 -35 -82 -19 -119 43 -19 33 -40 42 -23 10 15 -29 4 -25 -43
15 -22 19 -42 45 -44 58 -2 12 -17 35 -34 51 -29 27 -33 28 -70 17 -22 -7 -37
-16 -34 -21 3 -5 1 -11 -5 -15 -5 -3 -10 -15 -10 -26 0 -11 -4 -17 -10 -14 -5
3 -10 -1 -10 -9 0 -24 25 -19 57 10 l27 25 18 -23 c28 -35 40 -58 30 -58 -11
0 -37 29 -46 50 -3 8 -4 3 -1 -12 5 -28 -9 -46 -21 -26 -5 8 -10 4 -15 -10 -5
-12 -15 -22 -24 -22 -12 0 -14 -4 -5 -19 13 -26 13 -34 -2 -25 -7 4 -8 3 -4
-4 4 -6 -5 -18 -21 -27 -15 -9 -19 -13 -8 -10 51 18 55 18 49 1 -3 -9 -10 -16
-16 -16 -5 0 -6 -5 -2 -12 5 -8 2 -9 -12 -4 -10 4 -15 4 -11 0 4 -4 1 -14 -6
-23 -10 -14 -10 -14 3 -4 9 6 28 10 42 9 15 -2 25 0 23 4 -8 12 43 8 83 -7
l37 -14 -33 4 c-43 5 -36 -10 16 -33 24 -11 41 -16 38 -12 -3 5 9 16 25 26 35
21 59 9 59 -30 0 -12 5 -26 10 -29 12 -7 4 37 -11 67 -14 26 -10 34 6 12 8
-10 15 -15 15 -10 0 5 6 3 14 -3 11 -10 16 -8 21 9 7 21 58 54 69 43 3 -4 6
-16 6 -29 0 -12 9 -32 20 -45 19 -22 20 -22 18 -4 -3 20 0 20 44 8 16 -5 33
10 97 84 12 14 15 25 9 31 -11 11 -3 32 13 32 12 0 12 -61 0 -92 -6 -16 -4
-34 4 -53 12 -26 13 -27 14 -8 1 12 -4 25 -9 28 -8 5 -8 11 0 20 12 15 11 153
-2 161 -4 3 -7 0 -6 -6 2 -7 -5 -14 -14 -15 -14 -3 -13 3 8 31 31 40 38 43 28
12 -3 -13 -4 -20 0 -17 6 6 36 112 36 129 0 22 -16 7 -38 -33z"/>
<path d="M648 889 c-13 -17 -39 -42 -58 -56 l-35 -25 33 7 c28 6 32 4 32 -14
0 -12 6 -21 13 -21 16 0 45 -59 39 -82 -3 -14 -12 -16 -55 -11 -29 3 -66 14
-83 24 -17 11 -39 19 -48 19 -13 0 -16 6 -11 23 6 21 6 21 -9 3 -9 -11 -16
-31 -16 -45 0 -21 2 -23 10 -11 14 21 19 12 81 -143 48 -120 114 -227 139
-227 6 0 5 -8 -2 -20 -11 -16 -9 -22 7 -34 14 -11 16 -15 6 -16 -8 0 -12 -2
-10 -5 3 -2 21 0 41 5 29 8 35 14 31 30 -4 14 4 25 30 40 40 24 73 92 65 134
-3 14 -2 24 2 21 3 -2 12 29 19 70 7 46 20 83 32 97 l20 23 -5 -27 c-3 -14 -8
-34 -11 -45 -3 -10 6 7 21 37 14 30 29 57 33 60 15 9 31 49 31 73 0 17 -14 36
-42 61 -24 19 -53 45 -65 57 -13 12 -23 18 -23 13 0 -15 29 -90 30 -76 0 6 11
12 25 12 31 0 66 -57 43 -71 -7 -5 -21 -9 -30 -9 -10 0 -18 -7 -18 -15 0 -8
-14 -29 -31 -47 -17 -18 -29 -26 -26 -18 3 11 -2 16 -16 18 -12 0 -27 9 -34
19 -12 15 -13 13 -7 -15 8 -38 -12 -45 -25 -9 -11 27 -46 60 -86 79 -25 12
-30 19 -29 49 0 19 9 48 19 63 17 25 20 27 31 11 13 -17 31 -4 19 15 -13 21
-54 10 -77 -21z m-35 -249 c-7 -25 5 -26 23 -2 12 16 13 15 14 -5 0 -12 3 -28
6 -36 5 -14 8 -13 23 1 10 9 16 20 14 25 -2 4 0 7 5 7 6 0 8 -19 6 -42 -4 -40
-3 -41 7 -15 13 33 29 35 30 5 1 -19 2 -19 6 -5 5 18 5 18 19 0 9 -13 13 -14
14 -4 0 13 63 81 75 81 13 0 3 -58 -14 -84 l-19 -29 -5 29 c-2 16 -2 2 0 -31
4 -59 -2 -95 -16 -95 -4 0 -8 13 -9 29 -1 16 -9 42 -17 57 -12 23 -15 25 -21
11 -3 -9 -10 -14 -16 -11 -6 4 -7 -8 -3 -29 4 -20 3 -37 -3 -41 -6 -3 -13 11
-17 34 -4 22 -12 40 -19 40 -20 0 -76 30 -76 41 0 5 -7 9 -15 9 -11 0 -15 11
-15 38 0 21 3 42 6 45 12 12 22 -3 17 -23z"/>
</g>
</svg>
