<?xml version="1.0" encoding="UTF-8"?>
<!DOCTYPE svg PUBLIC "-//W3C//DTD SVG 1.1//EN" "http://www.w3.org/Graphics/SVG/1.1/DTD/svg11.dtd">
<svg xmlns="http://www.w3.org/2000/svg" version="1.1" width="147px" height="147px" style="shape-rendering:geometricPrecision; text-rendering:geometricPrecision; image-rendering:optimizeQuality; fill-rule:evenodd; clip-rule:evenodd" xmlns:xlink="http://www.w3.org/1999/xlink">
<g><path style="opacity:0.098" fill="#606160" d="M 7.5,5.5 C 8.83333,6.16667 8.83333,6.16667 7.5,5.5 Z"/></g>
<g><path style="opacity:1" fill="#fa0e08" d="M 116.5,124.5 C 115.29,124.932 114.29,125.599 113.5,126.5C 85.1438,145.561 57.1438,145.061 29.5,125C 1.44009,96.9176 -1.89324,66.0843 19.5,32.5C 37.6428,10.8789 60.6428,2.71223 88.5,8C 126.757,21.291 143.257,48.1243 138,88.5C 134.648,102.885 127.482,114.885 116.5,124.5 Z M 61.5,21.5 C 68.1667,21.5 74.8333,21.5 81.5,21.5C 80.8333,22.1667 80.1667,22.8333 79.5,23.5C 78.5084,23.3284 77.8417,23.6618 77.5,24.5C 76.1779,24.67 75.0113,24.3366 74,23.5C 73.5357,24.0944 73.369,24.7611 73.5,25.5C 72.2905,25.9321 71.2905,26.5987 70.5,27.5C 70.1667,27.5 69.8333,27.5 69.5,27.5C 68.1667,27.5 66.8333,27.5 65.5,27.5C 63.3888,26.2584 61.3888,26.2584 59.5,27.5C 57.847,27.6596 56.5137,28.3263 55.5,29.5C 54.8333,29.5 54.1667,29.5 53.5,29.5C 52.2905,29.9321 51.2905,30.5987 50.5,31.5C 50.1667,31.5 49.8333,31.5 49.5,31.5C 48.4655,30.2092 47.4655,28.8758 46.5,27.5C 48.3224,27.1692 49.9891,26.5025 51.5,25.5C 51.4346,25.9382 51.6012,26.2716 52,26.5C 53.7286,26.0257 54.8953,25.0257 55.5,23.5C 58.0821,23.9746 60.0821,23.3079 61.5,21.5 Z M 101.5,29.5 C 103.518,30.8592 105.518,32.1925 107.5,33.5C 107.5,34.8333 108.167,35.5 109.5,35.5C 109.5,36.8333 110.167,37.5 111.5,37.5C 111.5,38.8333 112.167,39.5 113.5,39.5C 114.449,41.7772 115.782,43.7772 117.5,45.5C 117.427,47.0269 118.094,48.0269 119.5,48.5C 119.5,48.8333 119.5,49.1667 119.5,49.5C 119.427,51.0269 120.094,52.0269 121.5,52.5C 121.5,52.8333 121.5,53.1667 121.5,53.5C 121.796,55.403 122.463,57.0697 123.5,58.5C 123.5,59.5 123.5,60.5 123.5,61.5C 123.927,64.0098 124.593,66.3432 125.5,68.5C 125.5,71.5 125.5,74.5 125.5,77.5C 124.629,80.003 123.963,82.6697 123.5,85.5C 123.5,86.1667 123.5,86.8333 123.5,87.5C 122.655,88.6715 121.989,90.0048 121.5,91.5C 120.167,94.8333 118.833,98.1667 117.5,101.5C 116.167,101.5 115.5,102.167 115.5,103.5C 114.599,104.29 113.932,105.29 113.5,106.5C 110.87,108.628 108.37,110.961 106,113.5C 105.623,112.058 104.79,111.058 103.5,110.5C 103.5,110.167 103.5,109.833 103.5,109.5C 103.843,107.517 103.176,106.183 101.5,105.5C 101.975,102.918 101.308,100.918 99.5,99.5C 99.573,97.9731 98.9063,96.9731 97.5,96.5C 97.5,96.1667 97.5,95.8333 97.5,95.5C 96.2086,94.5272 96.2086,93.5272 97.5,92.5C 97.0431,91.7025 96.3764,91.3691 95.5,91.5C 95.5,90.8333 95.5,90.1667 95.5,89.5C 95.573,87.9731 94.9063,86.9731 93.5,86.5C 93.5,86.1667 93.5,85.8333 93.5,85.5C 92.2086,84.5272 92.2086,83.5272 93.5,82.5C 93.0431,81.7025 92.3764,81.3691 91.5,81.5C 91.5449,78.9228 90.5449,76.9228 88.5,75.5C 88.1667,74.8333 87.8333,74.1667 87.5,73.5C 90.1667,72.8333 90.1667,72.1667 87.5,71.5C 87.5,70.8333 87.5,70.1667 87.5,69.5C 87.573,67.9731 86.9063,66.9731 85.5,66.5C 85.5,66.1667 85.5,65.8333 85.5,65.5C 86.8333,65.5 87.5,64.8333 87.5,63.5C 87.5,62.8333 87.5,62.1667 87.5,61.5C 87.8333,61.5 88.1667,61.5 88.5,61.5C 90.1788,61.7148 91.1788,61.0481 91.5,59.5C 92.1667,59.5 92.8333,59.5 93.5,59.5C 93.369,60.2389 93.5357,60.9056 94,61.5C 95.3875,60.2642 96.5542,58.9308 97.5,57.5C 98.8333,57.5 100.167,57.5 101.5,57.5C 101.232,55.901 101.566,54.5676 102.5,53.5C 102.369,54.2389 102.536,54.9056 103,55.5C 103.417,54.244 104.25,53.5774 105.5,53.5C 106.151,51.1743 106.818,48.8409 107.5,46.5C 107.36,44.9704 106.693,43.9704 105.5,43.5C 105.6,40.8915 104.933,38.5582 103.5,36.5C 103.573,34.9731 102.906,33.9731 101.5,33.5C 101.5,32.8333 101.5,32.1667 101.5,31.5C 101.5,30.8333 101.5,30.1667 101.5,29.5 Z M 41.5,31.5 C 42.1667,31.8333 42.8333,32.1667 43.5,32.5C 43.5,32.8333 43.5,33.1667 43.5,33.5C 44.8333,34.8333 44.8333,36.1667 43.5,37.5C 43.5,37.8333 43.5,38.1667 43.5,38.5C 41.8784,39.1224 40.5451,40.1224 39.5,41.5C 38.1529,42.1712 36.9862,42.1712 36,41.5C 35.5357,42.0944 35.369,42.7611 35.5,43.5C 34.8333,43.5 34.1667,43.5 33.5,43.5C 33.1667,43.5 32.8333,43.5 32.5,43.5C 31.8902,42.609 31.5569,41.609 31.5,40.5C 32.5,39.5 33.5,38.5 34.5,37.5C 37.4935,37.8543 38.4935,36.8543 37.5,34.5C 37.5,33.8333 37.8333,33.5 38.5,33.5C 40.1788,33.7148 41.1788,33.0481 41.5,31.5 Z M 22.5,65.5 C 22.3284,66.4916 22.6618,67.1583 23.5,67.5C 22.4309,70.408 22.2642,73.408 23,76.5C 23.3333,74.1667 23.6667,71.8333 24,69.5C 24.2321,70.7375 24.7321,71.7375 25.5,72.5C 25.5,72.8333 25.5,73.1667 25.5,73.5C 25.427,75.0269 26.0937,76.0269 27.5,76.5C 27.5,76.8333 27.5,77.1667 27.5,77.5C 27.427,79.0269 28.0937,80.0269 29.5,80.5C 29.5,81.1667 29.8333,81.5 30.5,81.5C 31.4919,83.0265 32.9919,83.6932 35,83.5C 36.3847,83.4857 37.5514,83.1524 38.5,82.5C 38.8333,82.5 39.1667,82.5 39.5,82.5C 40.9473,83.8852 41.9473,83.5518 42.5,81.5C 42.8333,81.5 43.1667,81.5 43.5,81.5C 43.3691,82.3764 43.7025,83.0431 44.5,83.5C 45.5244,82.1482 46.5244,80.8149 47.5,79.5C 48.3019,80.9516 48.8019,82.6183 49,84.5C 49.3838,81.9398 50.2171,79.6064 51.5,77.5C 51.8333,77.5 52.1667,77.5 52.5,77.5C 54.1788,77.7148 55.1788,77.0481 55.5,75.5C 56.8333,75.5 58.1667,75.5 59.5,75.5C 59.7822,76.7777 60.4489,77.7777 61.5,78.5C 61.2594,80.8984 61.9261,82.8984 63.5,84.5C 63.2627,85.791 63.596,86.791 64.5,87.5C 64.3284,88.4916 64.6618,89.1583 65.5,89.5C 66.1667,91.5 66.8333,93.5 67.5,95.5C 67.427,97.0269 68.0937,98.0269 69.5,98.5C 69.4021,100.553 70.0687,102.22 71.5,103.5C 71.5,104.167 71.5,104.833 71.5,105.5C 71.427,107.027 72.0937,108.027 73.5,108.5C 74.4069,114.106 74.7402,119.773 74.5,125.5C 71.5,125.5 68.5,125.5 65.5,125.5C 63.5239,124.055 61.5239,123.389 59.5,123.5C 58.5,123.5 57.5,123.5 56.5,123.5C 55.5,122.833 54.5,122.167 53.5,121.5C 52.8333,121.5 52.1667,121.5 51.5,121.5C 48.1747,119.503 44.8413,117.503 41.5,115.5C 41.6621,113.473 41.4955,111.473 41,109.5C 40.79,111.058 40.29,112.391 39.5,113.5C 38.5,113.167 37.8333,112.5 37.5,111.5C 37.5,110.167 36.8333,109.5 35.5,109.5C 35.5,108.167 34.8333,107.5 33.5,107.5C 33.5,106.167 32.8333,105.5 31.5,105.5C 31.646,102.446 30.3126,100.446 27.5,99.5C 27.573,97.9731 26.9063,96.9731 25.5,96.5C 25.5,96.1667 25.5,95.8333 25.5,95.5C 25.573,93.9731 24.9063,92.9731 23.5,92.5C 23.5,91.5 23.5,90.5 23.5,89.5C 23.6655,85.4862 23.4988,81.4862 23,77.5C 22.8195,80.6946 22.3195,83.6946 21.5,86.5C 21.5,84.8333 21.5,83.1667 21.5,81.5C 21.1786,75.9738 21.5119,70.6405 22.5,65.5 Z"/></g>
<g><path style="opacity:0.043" fill="#ffc0c0" d="M 61.5,21.5 C 60.0821,23.3079 58.0821,23.9746 55.5,23.5C 57.3024,22.5418 59.3024,21.8751 61.5,21.5 Z"/></g>
<g><path style="opacity:1" fill="#925c4f" d="M 81.5,21.5 C 82.3764,21.3691 83.0431,21.7025 83.5,22.5C 82.3112,23.4287 80.9778,23.762 79.5,23.5C 80.1667,22.8333 80.8333,22.1667 81.5,21.5 Z"/></g>
<g><path style="opacity:0.031" fill="#facfc8" d="M 55.5,23.5 C 54.8953,25.0257 53.7286,26.0257 52,26.5C 51.6012,26.2716 51.4346,25.9382 51.5,25.5C 52.5137,24.3263 53.847,23.6596 55.5,23.5 Z"/></g>
<g><path style="opacity:0.757" fill="#878580" d="M 77.5,24.5 C 76.4324,25.4345 75.099,25.7678 73.5,25.5C 73.369,24.7611 73.5357,24.0944 74,23.5C 75.0113,24.3366 76.1779,24.67 77.5,24.5 Z"/></g>
<g><path style="opacity:0.749" fill="#777077" d="M 73.5,25.5 C 73.5,26.1667 73.5,26.8333 73.5,27.5C 72.5,27.5 71.5,27.5 70.5,27.5C 71.2905,26.5987 72.2905,25.9321 73.5,25.5 Z"/></g>
<g><path style="opacity:1" fill="#fd0403" d="M 65.5,27.5 C 65.62,28.5862 66.2867,29.2528 67.5,29.5C 68.7133,29.2528 69.38,28.5862 69.5,27.5C 69.8333,27.5 70.1667,27.5 70.5,27.5C 71.5,27.5 72.5,27.5 73.5,27.5C 74.7997,28.1079 76.1331,28.7745 77.5,29.5C 79.9366,28.2587 82.4366,27.2587 85,26.5C 85.6924,27.0253 86.1924,27.6919 86.5,28.5C 85.3192,30.198 85.3192,31.8647 86.5,33.5C 87.0568,31.6684 88.0568,30.3351 89.5,29.5C 90.1667,30.1667 90.8333,30.8333 91.5,31.5C 94.7555,39.6903 97.7555,48.0236 100.5,56.5C 99.209,56.2627 98.209,56.596 97.5,57.5C 95.847,57.6596 94.5137,58.3263 93.5,59.5C 92.8333,59.5 92.1667,59.5 91.5,59.5C 90.2905,59.9321 89.2905,60.5987 88.5,61.5C 88.1667,61.5 87.8333,61.5 87.5,61.5C 84.9873,62.2257 84.3207,63.5591 85.5,65.5C 85.5,65.8333 85.5,66.1667 85.5,66.5C 85.427,68.0269 86.0937,69.0269 87.5,69.5C 87.5,70.1667 87.5,70.8333 87.5,71.5C 87.5,72.1667 87.5,72.8333 87.5,73.5C 79.805,74.2182 72.1383,75.2182 64.5,76.5C 62.7927,76.2716 61.126,75.9383 59.5,75.5C 58.1667,75.5 56.8333,75.5 55.5,75.5C 54.2905,75.9321 53.2905,76.5987 52.5,77.5C 52.1667,77.5 51.8333,77.5 51.5,77.5C 49.847,77.6596 48.5137,78.3263 47.5,79.5C 45.847,79.6596 44.5137,80.3263 43.5,81.5C 43.1667,81.5 42.8333,81.5 42.5,81.5C 41.391,81.5569 40.391,81.8902 39.5,82.5C 38.1241,76.0877 35.4574,70.421 31.5,65.5C 30.298,60.8414 28.9647,56.1747 27.5,51.5C 28.8062,50.5326 29.4729,49.1993 29.5,47.5C 30.8333,46.1667 32.1667,44.8333 33.5,43.5C 34.1667,43.5 34.8333,43.5 35.5,43.5C 37.4832,43.8432 38.8166,43.1765 39.5,41.5C 41.4832,41.8432 42.8166,41.1765 43.5,39.5C 43.8333,39.5 44.1667,39.5 44.5,39.5C 45.4614,37.7354 45.7947,35.7354 45.5,33.5C 47.4832,33.8432 48.8166,33.1765 49.5,31.5C 49.8333,31.5 50.1667,31.5 50.5,31.5C 52.1788,31.7148 53.1788,31.0481 53.5,29.5C 54.1667,29.5 54.8333,29.5 55.5,29.5C 57.4832,29.8432 58.8166,29.1765 59.5,27.5C 61.3888,26.2584 63.3888,26.2584 65.5,27.5 Z"/></g>
<g><path style="opacity:1" fill="#9d4a47" d="M 59.5,27.5 C 58.8166,29.1765 57.4832,29.8432 55.5,29.5C 56.5137,28.3263 57.847,27.6596 59.5,27.5 Z"/></g>
<g><path style="opacity:1" fill="#9a726a" d="M 65.5,27.5 C 66.8333,27.5 68.1667,27.5 69.5,27.5C 69.38,28.5862 68.7133,29.2528 67.5,29.5C 66.2867,29.2528 65.62,28.5862 65.5,27.5 Z"/></g>
<g><path style="opacity:1" fill="#c6aaa4" d="M 91.5,31.5 C 90.8333,30.8333 90.1667,30.1667 89.5,29.5C 89.3691,28.6236 89.7025,27.9569 90.5,27.5C 91.4287,28.6888 91.762,30.0222 91.5,31.5 Z"/></g>
<g><path style="opacity:0.141" fill="#f2c1a9" d="M 101.5,29.5 C 101.5,30.1667 101.5,30.8333 101.5,31.5C 99.9122,30.3647 99.5788,29.0314 100.5,27.5C 101.298,27.9569 101.631,28.6236 101.5,29.5 Z"/></g>
<g><path style="opacity:1" fill="#c3b6b5" d="M 46.5,27.5 C 47.4655,28.8758 48.4655,30.2092 49.5,31.5C 48.8166,33.1765 47.4832,33.8432 45.5,33.5C 45.7947,35.7354 45.4614,37.7354 44.5,39.5C 44.5,38.8333 44.1667,38.5 43.5,38.5C 43.5,38.1667 43.5,37.8333 43.5,37.5C 44.8333,36.1667 44.8333,34.8333 43.5,33.5C 43.5,33.1667 43.5,32.8333 43.5,32.5C 42.8333,32.1667 42.1667,31.8333 41.5,31.5C 42.507,29.478 44.1737,28.1447 46.5,27.5 Z"/></g>
<g><path style="opacity:0.757" fill="#89777d" d="M 53.5,29.5 C 53.1788,31.0481 52.1788,31.7148 50.5,31.5C 51.2905,30.5987 52.2905,29.9321 53.5,29.5 Z"/></g>
<g><path style="opacity:0.063" fill="#fbc1bf" d="M 41.5,31.5 C 41.1788,33.0481 40.1788,33.7148 38.5,33.5C 38.9731,32.0937 39.9731,31.427 41.5,31.5 Z"/></g>
<g><path style="opacity:0.431" fill="#d99794" d="M 101.5,33.5 C 102.906,33.9731 103.573,34.9731 103.5,36.5C 102.094,36.0269 101.427,35.0269 101.5,33.5 Z"/></g>
<g><path style="opacity:0.243" fill="#e09892" d="M 107.5,33.5 C 108.833,33.5 109.5,34.1667 109.5,35.5C 109.5,34.1667 108.833,33.5 107.5,33.5 Z"/></g>
<g><path style="opacity:0.531" fill="#ffced5" d="M 37.5,34.5 C 38.4935,36.8543 37.4935,37.8543 34.5,37.5C 35.1667,36.1667 36.1667,35.1667 37.5,34.5 Z"/></g>
<g><path style="opacity:0.298" fill="#dc9288" d="M 109.5,35.5 C 110.833,35.5 111.5,36.1667 111.5,37.5C 111.5,36.1667 110.833,35.5 109.5,35.5 Z"/></g>
<g><path style="opacity:1" fill="#dca6a1" d="M 91.5,31.5 C 95.8587,37.5507 99.192,44.2173 101.5,51.5C 101.833,52.1667 102.167,52.8333 102.5,53.5C 101.566,54.5676 101.232,55.901 101.5,57.5C 100.167,57.5 98.8333,57.5 97.5,57.5C 98.209,56.596 99.209,56.2627 100.5,56.5C 97.7555,48.0236 94.7555,39.6903 91.5,31.5 Z"/></g>
<g><path style="opacity:0.373" fill="#df807b" d="M 111.5,37.5 C 112.833,37.5 113.5,38.1667 113.5,39.5C 113.5,38.1667 112.833,37.5 111.5,37.5 Z"/></g>
<g><path style="opacity:0.976" fill="#997974" d="M 43.5,38.5 C 43.5,38.8333 43.5,39.1667 43.5,39.5C 42.8166,41.1765 41.4832,41.8432 39.5,41.5C 40.5451,40.1224 41.8784,39.1224 43.5,38.5 Z"/></g>
<g><path style="opacity:1" fill="#b05755" d="M 39.5,41.5 C 38.8166,43.1765 37.4832,43.8432 35.5,43.5C 35.369,42.7611 35.5357,42.0944 36,41.5C 36.9862,42.1712 38.1529,42.1712 39.5,41.5 Z"/></g>
<g><path style="opacity:1" fill="#de9791" d="M 31.5,40.5 C 31.5569,41.609 31.8902,42.609 32.5,43.5C 32.8333,43.5 33.1667,43.5 33.5,43.5C 32.1667,44.8333 30.8333,46.1667 29.5,47.5C 28.5028,47.5299 27.8361,47.0299 27.5,46C 28.4825,43.8504 29.8158,42.0171 31.5,40.5 Z"/></g>
<g><path style="opacity:0.682" fill="#c46c73" d="M 117.5,45.5 C 119.048,45.8212 119.715,46.8212 119.5,48.5C 118.094,48.0269 117.427,47.0269 117.5,45.5 Z"/></g>
<g><path style="opacity:0.992" fill="#f55f51" d="M 105.5,43.5 C 106.693,43.9704 107.36,44.9704 107.5,46.5C 106.818,48.8409 106.151,51.1743 105.5,53.5C 104.25,53.5774 103.417,54.244 103,55.5C 102.536,54.9056 102.369,54.2389 102.5,53.5C 102.167,52.8333 101.833,52.1667 101.5,51.5C 104.708,49.9261 106.042,47.2594 105.5,43.5 Z"/></g>
<g><path style="opacity:0.616" fill="#bc7875" d="M 119.5,49.5 C 121.048,49.8212 121.715,50.8212 121.5,52.5C 120.094,52.0269 119.427,51.0269 119.5,49.5 Z"/></g>
<g><path style="opacity:1" fill="#d19d91" d="M 27.5,51.5 C 28.9647,56.1747 30.298,60.8414 31.5,65.5C 29.0007,61.8348 27.0007,57.8348 25.5,53.5C 25.7472,52.2867 26.4138,51.62 27.5,51.5 Z"/></g>
<g><path style="opacity:0.318" fill="#c67a70" d="M 121.5,53.5 C 123.256,54.5521 123.923,56.2188 123.5,58.5C 122.463,57.0697 121.796,55.403 121.5,53.5 Z"/></g>
<g><path style="opacity:0.251" fill="#ff92a4" d="M 91.5,59.5 C 91.1788,61.0481 90.1788,61.7148 88.5,61.5C 89.2905,60.5987 90.2905,59.9321 91.5,59.5 Z"/></g>
<g><path style="opacity:0.008" fill="#fcc7cf" d="M 97.5,57.5 C 96.5542,58.9308 95.3875,60.2642 94,61.5C 93.5357,60.9056 93.369,60.2389 93.5,59.5C 94.5137,58.3263 95.847,57.6596 97.5,57.5 Z"/></g>
<g><path style="opacity:0.29" fill="#ff94a8" d="M 87.5,61.5 C 87.5,62.1667 87.5,62.8333 87.5,63.5C 86.1667,63.5 85.5,64.1667 85.5,65.5C 84.3207,63.5591 84.9873,62.2257 87.5,61.5 Z"/></g>
<g><path style="opacity:0.675" fill="#977d73" d="M 123.5,61.5 C 125.344,63.2789 126.01,65.6122 125.5,68.5C 124.593,66.3432 123.927,64.0098 123.5,61.5 Z"/></g>
<g><path style="opacity:0.027" fill="#c8e8dd" d="M 87.5,63.5 C 87.5,64.8333 86.8333,65.5 85.5,65.5C 85.5,64.1667 86.1667,63.5 87.5,63.5 Z"/></g>
<g><path style="opacity:1" fill="#d27e72" d="M 23.5,67.5 C 25.256,68.5521 25.9227,70.2188 25.5,72.5C 24.7321,71.7375 24.2321,70.7375 24,69.5C 23.6667,71.8333 23.3333,74.1667 23,76.5C 22.2642,73.408 22.4309,70.408 23.5,67.5 Z"/></g>
<g><path style="opacity:1" fill="#d89e9a" d="M 31.5,65.5 C 35.4574,70.421 38.1241,76.0877 39.5,82.5C 39.1667,82.5 38.8333,82.5 38.5,82.5C 38.5,81.8333 38.1667,81.5 37.5,81.5C 34.9113,76.3343 32.9113,71.001 31.5,65.5 Z"/></g>
<g><path style="opacity:0.224" fill="#f9a5b0" d="M 85.5,66.5 C 86.9063,66.9731 87.573,67.9731 87.5,69.5C 86.0937,69.0269 85.427,68.0269 85.5,66.5 Z"/></g>
<g><path style="opacity:0.082" fill="#fab7b6" d="M 22.5,65.5 C 21.5119,70.6405 21.1786,75.9738 21.5,81.5C 19.9827,79.5379 19.3161,77.2046 19.5,74.5C 19.7826,70.804 20.2826,67.1374 21,63.5C 21.7172,64.0442 22.2172,64.7109 22.5,65.5 Z"/></g>
<g><path style="opacity:0.337" fill="#fa9da2" d="M 87.5,71.5 C 90.1667,72.1667 90.1667,72.8333 87.5,73.5C 87.5,72.8333 87.5,72.1667 87.5,71.5 Z"/></g>
<g><path style="opacity:0.894" fill="#ac766f" d="M 25.5,73.5 C 27.0481,73.8212 27.7148,74.8212 27.5,76.5C 26.0937,76.0269 25.427,75.0269 25.5,73.5 Z"/></g>
<g><path style="opacity:1" fill="#fa0c08" d="M 88.5,75.5 C 90.5449,76.9228 91.5449,78.9228 91.5,81.5C 91.5,82.8333 90.8333,83.5 89.5,83.5C 81.2162,85.0898 72.8828,86.4231 64.5,87.5C 63.596,86.791 63.2627,85.791 63.5,84.5C 63.4679,81.9242 64.1346,79.5909 65.5,77.5C 73.1784,76.9423 80.8451,76.2756 88.5,75.5 Z"/></g>
<g><path style="opacity:0.333" fill="#ff9b99" d="M 55.5,75.5 C 55.1788,77.0481 54.1788,77.7148 52.5,77.5C 53.2905,76.5987 54.2905,75.9321 55.5,75.5 Z"/></g>
<g><path style="opacity:1" fill="#da9388" d="M 87.5,73.5 C 87.8333,74.1667 88.1667,74.8333 88.5,75.5C 80.8451,76.2756 73.1784,76.9423 65.5,77.5C 64.1667,77.8333 62.8333,78.1667 61.5,78.5C 60.4489,77.7777 59.7822,76.7777 59.5,75.5C 61.126,75.9383 62.7927,76.2716 64.5,76.5C 72.1383,75.2182 79.805,74.2182 87.5,73.5 Z"/></g>
<g><path style="opacity:1" fill="#b86655" d="M 27.5,77.5 C 29.0481,77.8212 29.7148,78.8212 29.5,80.5C 28.0937,80.0269 27.427,79.0269 27.5,77.5 Z"/></g>
<g><path style="opacity:1" fill="#b34a3c" d="M 65.5,77.5 C 64.1346,79.5909 63.4679,81.9242 63.5,84.5C 61.9261,82.8984 61.2594,80.8984 61.5,78.5C 62.8333,78.1667 64.1667,77.8333 65.5,77.5 Z"/></g>
<g><path style="opacity:0.012" fill="#e5c1c3" d="M 51.5,77.5 C 50.2171,79.6064 49.3838,81.9398 49,84.5C 48.8019,82.6183 48.3019,80.9516 47.5,79.5C 48.5137,78.3263 49.847,77.6596 51.5,77.5 Z"/></g>
<g><path style="opacity:0.098" fill="#d1c0aa" d="M 91.5,81.5 C 92.3764,81.3691 93.0431,81.7025 93.5,82.5C 92.2086,83.5272 92.2086,84.5272 93.5,85.5C 92.1667,85.5 90.8333,85.5 89.5,85.5C 89.5,84.8333 89.5,84.1667 89.5,83.5C 90.8333,83.5 91.5,82.8333 91.5,81.5 Z"/></g>
<g><path style="opacity:0.447" fill="#928482" d="M 125.5,77.5 C 126.036,80.6981 125.369,83.3647 123.5,85.5C 123.963,82.6697 124.629,80.003 125.5,77.5 Z"/></g>
<g><path style="opacity:0.094" fill="#f8a9ad" d="M 30.5,81.5 C 33.1272,82.0916 35.7938,82.4249 38.5,82.5C 37.5514,83.1524 36.3847,83.4857 35,83.5C 32.9919,83.6932 31.4919,83.0265 30.5,81.5 Z"/></g>
<g><path style="opacity:0.145" fill="#e2b9b1" d="M 42.5,81.5 C 41.9473,83.5518 40.9473,83.8852 39.5,82.5C 40.391,81.8902 41.391,81.5569 42.5,81.5 Z"/></g>
<g><path style="opacity:0.067" fill="#e1dbd9" d="M 47.5,79.5 C 46.5244,80.8149 45.5244,82.1482 44.5,83.5C 43.7025,83.0431 43.3691,82.3764 43.5,81.5C 44.5137,80.3263 45.847,79.6596 47.5,79.5 Z"/></g>
<g><path style="opacity:0.094" fill="#cdb9b6" d="M 23.5,89.5 C 21.9519,89.1788 21.2852,88.1788 21.5,86.5C 22.3195,83.6946 22.8195,80.6946 23,77.5C 23.4988,81.4862 23.6655,85.4862 23.5,89.5 Z"/></g>
<g><path style="opacity:1" fill="#d47773" d="M 89.5,83.5 C 89.5,84.1667 89.5,84.8333 89.5,85.5C 81.5,86.8333 73.5,88.1667 65.5,89.5C 64.6618,89.1583 64.3284,88.4916 64.5,87.5C 72.8828,86.4231 81.2162,85.0898 89.5,83.5 Z"/></g>
<g><path style="opacity:1" fill="#fc0c09" d="M 89.5,85.5 C 90.8333,85.5 92.1667,85.5 93.5,85.5C 93.5,85.8333 93.5,86.1667 93.5,86.5C 93.2852,88.1788 93.9519,89.1788 95.5,89.5C 95.5,90.1667 95.5,90.8333 95.5,91.5C 95.4226,92.7498 94.756,93.5831 93.5,94C 87.9196,94.6456 82.5862,95.8123 77.5,97.5C 76.1667,97.5 74.8333,97.5 73.5,97.5C 72.1667,97.8333 70.8333,98.1667 69.5,98.5C 69.7148,96.8212 69.0481,95.8212 67.5,95.5C 66.8333,93.5 66.1667,91.5 65.5,89.5C 73.5,88.1667 81.5,86.8333 89.5,85.5 Z"/></g>
<g><path style="opacity:0.204" fill="#f7a39e" d="M 93.5,86.5 C 94.9063,86.9731 95.573,87.9731 95.5,89.5C 93.9519,89.1788 93.2852,88.1788 93.5,86.5 Z"/></g>
<g><path style="opacity:0.702" fill="#82796a" d="M 123.5,87.5 C 123.843,89.4832 123.176,90.8166 121.5,91.5C 121.989,90.0048 122.655,88.6715 123.5,87.5 Z"/></g>
<g><path style="opacity:0.455" fill="#fd9796" d="M 23.5,92.5 C 24.9063,92.9731 25.573,93.9731 25.5,95.5C 24.0937,95.0269 23.427,94.0269 23.5,92.5 Z"/></g>
<g><path style="opacity:1" fill="#dca198" d="M 95.5,91.5 C 96.3764,91.3691 97.0431,91.7025 97.5,92.5C 96.2086,93.5272 96.2086,94.5272 97.5,95.5C 90.8865,96.6016 84.2199,97.2683 77.5,97.5C 82.5862,95.8123 87.9196,94.6456 93.5,94C 94.756,93.5831 95.4226,92.7498 95.5,91.5 Z"/></g>
<g><path style="opacity:0.745" fill="#b1937e" d="M 67.5,95.5 C 69.0481,95.8212 69.7148,96.8212 69.5,98.5C 68.0937,98.0269 67.427,97.0269 67.5,95.5 Z"/></g>
<g><path style="opacity:0.6" fill="#fd8d8c" d="M 25.5,96.5 C 26.9063,96.9731 27.573,97.9731 27.5,99.5C 26.0937,99.0269 25.427,98.0269 25.5,96.5 Z"/></g>
<g><path style="opacity:1" fill="#e17764" d="M 73.5,97.5 C 73.5,98.1667 73.5,98.8333 73.5,99.5C 71.8235,100.183 71.1568,101.517 71.5,103.5C 70.0687,102.22 69.4021,100.553 69.5,98.5C 70.8333,98.1667 72.1667,97.8333 73.5,97.5 Z"/></g>
<g><path style="opacity:1" fill="#8a6f72" d="M 73.5,97.5 C 74.8333,97.5 76.1667,97.5 77.5,97.5C 76.8166,99.1765 75.4832,99.8432 73.5,99.5C 73.5,98.8333 73.5,98.1667 73.5,97.5 Z"/></g>
<g><path style="opacity:0.357" fill="#f28991" d="M 97.5,96.5 C 98.9063,96.9731 99.573,97.9731 99.5,99.5C 97.9519,99.1788 97.2852,98.1788 97.5,96.5 Z"/></g>
<g><path style="opacity:0.106" fill="#e4ccc8" d="M 27.5,99.5 C 30.3126,100.446 31.646,102.446 31.5,105.5C 29.631,103.966 28.2977,101.966 27.5,99.5 Z"/></g>
<g><path style="opacity:1" fill="#836d5e" d="M 117.5,101.5 C 117.5,102.833 116.833,103.5 115.5,103.5C 115.5,102.167 116.167,101.5 117.5,101.5 Z"/></g>
<g><path style="opacity:1" fill="#ffaaa8" d="M 99.5,99.5 C 101.308,100.918 101.975,102.918 101.5,105.5C 98.8127,105.664 96.146,105.497 93.5,105C 95.5,104.667 97.5,104.333 99.5,104C 100.413,102.586 100.413,101.086 99.5,99.5 Z"/></g>
<g><path style="opacity:0.106" fill="#dabaaa" d="M 31.5,105.5 C 32.8333,105.5 33.5,106.167 33.5,107.5C 32.1667,107.5 31.5,106.833 31.5,105.5 Z"/></g>
<g><path style="opacity:0.761" fill="#b2897d" d="M 71.5,105.5 C 73.0481,105.821 73.7148,106.821 73.5,108.5C 72.0937,108.027 71.427,107.027 71.5,105.5 Z"/></g>
<g><path style="opacity:0.129" fill="#f5909d" d="M 101.5,105.5 C 103.176,106.183 103.843,107.517 103.5,109.5C 102.326,108.486 101.66,107.153 101.5,105.5 Z"/></g>
<g><path style="opacity:0.092" fill="#d0c3ab" d="M 33.5,107.5 C 34.8333,107.5 35.5,108.167 35.5,109.5C 34.1667,109.5 33.5,108.833 33.5,107.5 Z"/></g>
<g><path style="opacity:1" fill="#f80705" d="M 97.5,95.5 C 97.5,95.8333 97.5,96.1667 97.5,96.5C 97.2852,98.1788 97.9519,99.1788 99.5,99.5C 100.413,101.086 100.413,102.586 99.5,104C 97.5,104.333 95.5,104.667 93.5,105C 96.146,105.497 98.8127,105.664 101.5,105.5C 101.66,107.153 102.326,108.486 103.5,109.5C 103.5,109.833 103.5,110.167 103.5,110.5C 103.539,111.583 103.873,112.583 104.5,113.5C 103.051,114.172 101.718,114.839 100.5,115.5C 92.8441,116.582 85.1774,117.582 77.5,118.5C 76.6827,115.521 75.8494,112.521 75,109.5C 74.6174,108.944 74.1174,108.611 73.5,108.5C 73.7148,106.821 73.0481,105.821 71.5,105.5C 71.5,104.833 71.5,104.167 71.5,103.5C 71.1568,101.517 71.8235,100.183 73.5,99.5C 75.4832,99.8432 76.8166,99.1765 77.5,97.5C 84.2199,97.2683 90.8865,96.6016 97.5,95.5 Z"/></g>
<g><path style="opacity:0.067" fill="#d2c9b0" d="M 35.5,109.5 C 36.8333,109.5 37.5,110.167 37.5,111.5C 36.1667,111.5 35.5,110.833 35.5,109.5 Z"/></g>
<g><path style="opacity:0.106" fill="#cdbbb7" d="M 41.5,115.5 C 40.1667,115.5 39.5,114.833 39.5,113.5C 40.29,112.391 40.79,111.058 41,109.5C 41.4955,111.473 41.6621,113.473 41.5,115.5 Z"/></g>
<g><path style="opacity:1" fill="#d98988" d="M 100.5,115.5 C 101.338,115.842 101.672,116.508 101.5,117.5C 94.191,118.384 86.8577,119.051 79.5,119.5C 78.5084,119.672 77.8417,119.338 77.5,118.5C 85.1774,117.582 92.8441,116.582 100.5,115.5 Z"/></g>
<g><path style="opacity:1" fill="#d04c41" d="M 113.5,106.5 C 111.119,111.879 107.119,115.545 101.5,117.5C 101.672,116.508 101.338,115.842 100.5,115.5C 101.718,114.839 103.051,114.172 104.5,113.5C 103.873,112.583 103.539,111.583 103.5,110.5C 104.79,111.058 105.623,112.058 106,113.5C 108.37,110.961 110.87,108.628 113.5,106.5 Z"/></g>
<g><path style="opacity:0.012" fill="#f7e0d6" d="M 53.5,121.5 C 53.6395,119.663 54.3061,119.33 55.5,120.5C 55.0431,121.298 54.3764,121.631 53.5,121.5 Z"/></g>
<g><path style="opacity:1" fill="#dad2d0" d="M 73.5,108.5 C 74.1174,108.611 74.6174,108.944 75,109.5C 75.8494,112.521 76.6827,115.521 77.5,118.5C 77.8417,119.338 78.5084,119.672 79.5,119.5C 79.3285,121.492 79.9951,123.158 81.5,124.5C 79.2573,125.474 76.924,125.808 74.5,125.5C 74.7402,119.773 74.4069,114.106 73.5,108.5 Z"/></g>
<g><path style="opacity:1" fill="#c8564d" d="M 51.5,121.5 C 52.1667,121.5 52.8333,121.5 53.5,121.5C 54.5,122.167 55.5,122.833 56.5,123.5C 54.2188,123.923 52.5521,123.256 51.5,121.5 Z"/></g>
<g><path style="opacity:0.694" fill="#9d9783" d="M 59.5,123.5 C 61.5239,123.389 63.5239,124.055 65.5,125.5C 62.9179,125.975 60.9179,125.308 59.5,123.5 Z"/></g>
<g><path style="opacity:1" fill="#f2d1c9" d="M 116.5,124.5 C 116.179,126.048 115.179,126.715 113.5,126.5C 114.29,125.599 115.29,124.932 116.5,124.5 Z"/></g>
</svg>
