<?xml version="1.0" encoding="UTF-8"?>
<!DOCTYPE svg PUBLIC "-//W3C//DTD SVG 1.1//EN" "http://www.w3.org/Graphics/SVG/1.1/DTD/svg11.dtd">
<svg xmlns="http://www.w3.org/2000/svg" version="1.1" width="147px" height="147px" style="shape-rendering:geometricPrecision; text-rendering:geometricPrecision; image-rendering:optimizeQuality; fill-rule:evenodd; clip-rule:evenodd" xmlns:xlink="http://www.w3.org/1999/xlink">
<g><path style="opacity:0.004" fill="#737473" d="M 22.5,4.5 C 23.8333,5.16667 23.8333,5.16667 22.5,4.5 Z"/></g>
<g><path style="opacity:1" fill="#9e5758" d="M 84.5,7.5 C 76.5,7.5 68.5,7.5 60.5,7.5C 68.5,4.83333 76.5,4.83333 84.5,7.5 Z"/></g>
<g><path style="opacity:1" fill="#dc2116" d="M 60.5,7.5 C 68.5,7.5 76.5,7.5 84.5,7.5C 112.148,13.9765 129.981,30.9765 138,58.5C 143.165,99.3014 126.332,126.135 87.5,139C 53.3596,144.131 28.0262,131.631 11.5,101.5C 1.66768,75.2334 5.16768,51.2334 22,29.5C 32.3514,17.5812 45.1847,10.2479 60.5,7.5 Z"/></g>
<g><path style="opacity:1" fill="#080505" d="M 85.5,19.5 C 109.904,25.2406 123.904,40.574 127.5,65.5C 128.833,70.8333 128.833,76.1667 127.5,81.5C 124.766,103.902 112.766,118.902 91.5,126.5C 88.9135,127.48 86.2469,127.813 83.5,127.5C 82.8398,91.1512 83.5064,55.1512 85.5,19.5 Z"/></g>
<g><path style="opacity:1" fill="#090606" d="M 55.5,19.5 C 58.1667,19.5 60.8333,19.5 63.5,19.5C 63.5,55.5 63.5,91.5 63.5,127.5C 55.3019,127.767 47.9686,125.433 41.5,120.5C 15.6634,98.2019 10.6634,71.8686 26.5,41.5C 30.8333,37.1667 35.1667,32.8333 39.5,28.5C 44.6093,24.9494 49.9427,21.9494 55.5,19.5 Z"/></g>
<g><path style="opacity:1" fill="#5a0000" d="M 85.5,19.5 C 83.5064,55.1512 82.8398,91.1512 83.5,127.5C 82.5016,91.3372 82.1682,55.0038 82.5,18.5C 83.791,18.2627 84.791,18.596 85.5,19.5 Z"/></g>
<g><path style="opacity:1" fill="#6e524d" d="M 127.5,65.5 C 128.812,67.7432 129.478,70.4098 129.5,73.5C 129.478,76.5902 128.812,79.2568 127.5,81.5C 128.833,76.1667 128.833,70.8333 127.5,65.5 Z"/></g>
<g><path style="opacity:1" fill="#d72016" d="M 27.5,61.5 C 37.4437,67.8118 47.4437,74.1452 57.5,80.5C 44.9628,88.7499 35.9628,85.7499 30.5,71.5C 29.2847,68.191 28.2847,64.8577 27.5,61.5 Z"/></g>
<g><path style="opacity:1" fill="#d61f17" d="M 115.5,61.5 C 116.586,61.62 117.253,62.2867 117.5,63.5C 116.041,71.4162 112.708,78.4162 107.5,84.5C 100.706,86.558 94.7056,85.2247 89.5,80.5C 92.6429,76.6883 96.6429,74.0216 101.5,72.5C 104.643,68.6883 108.643,66.0216 113.5,64.5C 114.612,63.7348 115.279,62.7348 115.5,61.5 Z"/></g>
</svg>
