<?xml version="1.0" encoding="UTF-8"?>
<!DOCTYPE svg PUBLIC "-//W3C//DTD SVG 1.1//EN" "http://www.w3.org/Graphics/SVG/1.1/DTD/svg11.dtd">
<svg xmlns="http://www.w3.org/2000/svg" version="1.1" width="147px" height="147px" style="shape-rendering:geometricPrecision; text-rendering:geometricPrecision; image-rendering:optimizeQuality; fill-rule:evenodd; clip-rule:evenodd" xmlns:xlink="http://www.w3.org/1999/xlink">
<g><path style="opacity:1" fill="#af2527" d="M 83.5,5.5 C 84.9179,7.30794 86.9179,7.97461 89.5,7.5C 98.3411,9.08742 106.341,12.5874 113.5,18C 115.041,19.5793 116.208,21.4127 117,23.5C 118.623,36.707 121.123,49.707 124.5,62.5C 123.272,68.7791 122.439,75.1124 122,81.5C 120.021,82.7144 118.521,84.3811 117.5,86.5C 115.145,97.8731 111.645,108.873 107,119.5C 95.7238,138.804 79.2238,144.97 57.5,138C 53.6702,136.298 50.0036,134.465 46.5,132.5C 46.6495,131.448 46.4828,130.448 46,129.5C 40.3211,124.137 36.1544,117.804 33.5,110.5C 33.7148,108.821 33.0481,107.821 31.5,107.5C 30.0556,97.3823 27.2223,87.7156 23,78.5C 22.0558,70.8442 21.7225,63.1775 22,55.5C 22.7485,53.6675 23.7485,52.0009 25,50.5C 25.7885,39.8231 27.9552,29.4897 31.5,19.5C 46.9436,8.24891 64.277,3.58224 83.5,5.5 Z"/></g>
<g><path style="opacity:1" fill="#944f4b" d="M 83.5,5.5 C 85.7857,5.59495 87.7857,6.26162 89.5,7.5C 86.9179,7.97461 84.9179,7.30794 83.5,5.5 Z"/></g>
<g><path style="opacity:1" fill="#ead4aa" d="M 112.5,73.5 C 112.721,76.2788 112.388,78.9455 111.5,81.5C 107.905,89.7451 103.905,97.7451 99.5,105.5C 98.8022,112.734 98.1355,120.067 97.5,127.5C 95.4144,130.522 92.4144,131.855 88.5,131.5C 83.2964,130.097 77.9631,129.431 72.5,129.5C 66.1056,129.818 59.7723,130.318 53.5,131C 52,129.5 50.5,128 49,126.5C 49,120.5 49,114.5 49,108.5C 44.261,100.024 39.261,91.6908 34,83.5C 33.1923,81.4213 33.359,79.4213 34.5,77.5C 39.2117,80.6923 44.2117,83.0256 49.5,84.5C 51.3035,85.162 53.3035,85.4954 55.5,85.5C 57.9522,85.4609 59.9522,84.7943 61.5,83.5C 62.4756,82.1851 63.4756,80.8518 64.5,79.5C 57.3313,76.8746 49.998,74.8746 42.5,73.5C 39.4344,74.0456 36.4344,74.7123 33.5,75.5C 33.5838,72.6726 34.2504,70.006 35.5,67.5C 37.4814,54.5419 38.1481,41.2086 37.5,27.5C 42.1346,21.4147 48.3013,17.4147 56,15.5C 57.885,16.9918 58.885,18.9918 59,21.5C 59.9621,30.2734 61.4621,38.9401 63.5,47.5C 64.0253,48.1924 64.6919,48.6924 65.5,49C 71.5283,49.6406 77.5283,49.4739 83.5,48.5C 85.2983,37.8455 86.965,27.1788 88.5,16.5C 97.1126,16.5599 103.946,20.2266 109,27.5C 109.333,40.8333 109.667,54.1667 110,67.5C 111.122,69.4068 111.955,71.4068 112.5,73.5 Z"/></g>
<g><path style="opacity:1" fill="#fbaca9" d="M 37.5,27.5 C 38.1481,41.2086 37.4814,54.5419 35.5,67.5C 36.8019,55.6945 36.8019,43.8612 35.5,32C 35.3068,29.9919 35.9735,28.4919 37.5,27.5 Z"/></g>
<g><path style="opacity:1" fill="#815b39" d="M 112.5,73.5 C 113.156,74.6216 113.489,75.9549 113.5,77.5C 113.415,79.3328 112.748,80.6661 111.5,81.5C 112.388,78.9455 112.721,76.2788 112.5,73.5 Z"/></g>
<g><path style="opacity:1" fill="#ad2728" d="M 101.5,72.5 C 105.495,71.8827 108.828,73.0494 111.5,76C 104.102,82.6845 95.4349,85.3511 85.5,84C 83.5,82.6667 81.8333,81 80.5,79C 87.7493,77.2618 94.7493,75.0951 101.5,72.5 Z"/></g>
<g><path style="opacity:1" fill="#ff9c9c" d="M 61.5,83.5 C 59.9522,84.7943 57.9522,85.4609 55.5,85.5C 53.3035,85.4954 51.3035,85.162 49.5,84.5C 53.6002,84.7633 57.6002,84.4299 61.5,83.5 Z"/></g>
<g><path style="opacity:1" fill="#ad887e" d="M 31.5,107.5 C 33.0481,107.821 33.7148,108.821 33.5,110.5C 31.1759,110.123 30.5092,109.123 31.5,107.5 Z"/></g>
<g><path style="opacity:1" fill="#734221" d="M 99.5,105.5 C 100.13,113.243 99.4633,120.576 97.5,127.5C 98.1355,120.067 98.8022,112.734 99.5,105.5 Z"/></g>
</svg>
