<?xml version="1.0" encoding="UTF-8"?>
<!DOCTYPE svg PUBLIC "-//W3C//DTD SVG 1.1//EN" "http://www.w3.org/Graphics/SVG/1.1/DTD/svg11.dtd">
<svg xmlns="http://www.w3.org/2000/svg" version="1.1" width="147px" height="147px" style="shape-rendering:geometricPrecision; text-rendering:geometricPrecision; image-rendering:optimizeQuality; fill-rule:evenodd; clip-rule:evenodd" xmlns:xlink="http://www.w3.org/1999/xlink">
<g><path style="opacity:1" fill="#d52418" d="M 146.5,36.5 C 146.5,39.1667 146.5,41.8333 146.5,44.5C 144.871,45.6253 143.371,46.9586 142,48.5C 139.584,51.7338 137.417,55.0672 135.5,58.5C 134.167,58.5 133.5,59.1667 133.5,60.5C 132.167,60.5 131.5,61.1667 131.5,62.5C 127.655,69.4927 122.821,75.8261 117,81.5C 105.311,98.22 93.1448,114.553 80.5,130.5C 79.1667,130.5 78.5,131.167 78.5,132.5C 78.1816,134.818 76.8483,136.152 74.5,136.5C 71.9318,135.441 69.7651,133.774 68,131.5C 45.2614,101.948 22.4281,72.6148 -0.5,43.5C -0.5,41.5 -0.5,39.5 -0.5,37.5C 2.10227,36.0681 4.26894,34.0681 6,31.5C 10.7764,23.7249 15.943,16.2249 21.5,9C 55.5049,8.16676 89.5049,8.33343 123.5,9.5C 128.166,14.8458 132.333,20.5125 136,26.5C 139.369,30.0374 142.869,33.3707 146.5,36.5 Z"/></g>
<g><path style="opacity:1" fill="#eeab45" d="M 33.5,20.5 C 33.6107,19.8826 33.944,19.3826 34.5,19C 30.1985,17.994 26.1985,18.494 22.5,20.5C 22.5106,18.9826 23.1772,17.8159 24.5,17C 28.1875,16.5499 31.8542,16.7166 35.5,17.5C 35.7148,19.1788 35.0481,20.1788 33.5,20.5 Z"/></g>
<g><path style="opacity:1" fill="#f5cd12" d="M 97.5,16.5 C 100.833,16.5 104.167,16.5 107.5,16.5C 104.391,27.032 101.058,27.032 97.5,16.5 Z"/></g>
<g><path style="opacity:1" fill="#f9d615" d="M 99.5,39.5 C 107.65,40.4927 115.983,40.8261 124.5,40.5C 124.181,35.6367 124.514,30.97 125.5,26.5C 129.643,31.15 133.643,35.9833 137.5,41C 131.977,47.1873 126.477,53.3539 121,59.5C 116.838,56.3394 112.671,53.1727 108.5,50C 104.304,48.23 99.9707,47.0634 95.5,46.5C 94.7375,45.7321 93.7375,45.2321 92.5,45C 80.1569,44.6187 67.8236,44.1187 55.5,43.5C 38.5953,35.0458 38.5953,26.8791 55.5,19C 64.5185,18.168 73.5185,18.3347 82.5,19.5C 91.4811,23.4715 97.1478,30.1381 99.5,39.5 Z"/></g>
<g><path style="opacity:1" fill="#fa9e4a" d="M 125.5,26.5 C 124.514,30.97 124.181,35.6367 124.5,40.5C 115.983,40.8261 107.65,40.4927 99.5,39.5C 107.5,39.5 115.5,39.5 123.5,39.5C 123.334,34.4889 123.501,29.4889 124,24.5C 124.717,25.0442 125.217,25.7109 125.5,26.5 Z"/></g>
<g><path style="opacity:1" fill="#f5d419" d="M 33.5,20.5 C 26.7301,24.694 22.3967,30.694 20.5,38.5C 19.1767,42.4295 18.1767,46.4295 17.5,50.5C 14.4742,47.1339 11.8075,43.4672 9.5,39.5C 12.6634,32.3417 16.9968,26.0084 22.5,20.5C 26.1985,18.494 30.1985,17.994 34.5,19C 33.944,19.3826 33.6107,19.8826 33.5,20.5 Z"/></g>
<g><path style="opacity:1" fill="#d4940f" d="M 55.5,43.5 C 67.8236,44.1187 80.1569,44.6187 92.5,45C 93.7375,45.2321 94.7375,45.7321 95.5,46.5C 84.4798,46.8321 73.4798,46.4988 62.5,45.5C 60.0312,44.8319 57.6979,44.1653 55.5,43.5 Z"/></g>
<g><path style="opacity:1" fill="#cc7925" d="M 20.5,38.5 C 20.9473,43.0509 20.2806,47.3843 18.5,51.5C 17.8933,51.3764 17.56,51.0431 17.5,50.5C 18.1767,46.4295 19.1767,42.4295 20.5,38.5 Z"/></g>
<g><path style="opacity:0.196" fill="#fbb4b1" d="M 135.5,58.5 C 135.5,59.8333 134.833,60.5 133.5,60.5C 133.5,59.1667 134.167,58.5 135.5,58.5 Z"/></g>
<g><path style="opacity:0.012" fill="#e48584" d="M 133.5,60.5 C 133.5,61.8333 132.833,62.5 131.5,62.5C 131.5,61.1667 132.167,60.5 133.5,60.5 Z"/></g>
<g><path style="opacity:1" fill="#f17e50" d="M 41.5,68.5 C 38.3019,67.9644 35.6353,68.631 33.5,70.5C 31.9519,70.1788 31.2852,69.1788 31.5,67.5C 35.0419,67.1872 38.3752,67.5206 41.5,68.5 Z"/></g>
<g><path style="opacity:1" fill="#f4a663" d="M 51.5,68.5 C 56.6678,68.9338 61.6678,69.6004 66.5,70.5C 61.0557,71.1083 56.0557,70.4417 51.5,68.5 Z"/></g>
<g><path style="opacity:1" fill="#f8d417" d="M 41.5,68.5 C 44.8333,68.5 48.1667,68.5 51.5,68.5C 56.0557,70.4417 61.0557,71.1083 66.5,70.5C 78.7575,70.8472 90.4242,73.5139 101.5,78.5C 102.466,80.396 102.799,82.396 102.5,84.5C 98.1647,86.957 93.4981,88.7903 88.5,90C 83.467,90.8289 78.467,90.6623 73.5,89.5C 70.1988,86.8443 66.5322,84.6776 62.5,83C 55.5,82.6667 48.5,82.3333 41.5,82C 38.5963,78.2746 35.9297,74.4413 33.5,70.5C 35.6353,68.631 38.3019,67.9644 41.5,68.5 Z"/></g>
<g><path style="opacity:1" fill="#f7d419" d="M 62.5,102.5 C 65.7681,103.822 69.4348,104.489 73.5,104.5C 77.5652,104.489 81.2319,103.822 84.5,102.5C 86.1992,102.34 87.8659,102.506 89.5,103C 84.8102,110.033 79.8102,116.866 74.5,123.5C 68.8474,117.171 63.5141,110.504 58.5,103.5C 59.6888,102.571 61.0222,102.238 62.5,102.5 Z"/></g>
<g><path style="opacity:1" fill="#f99160" d="M 62.5,102.5 C 69.8333,103.833 77.1667,103.833 84.5,102.5C 81.2319,103.822 77.5652,104.489 73.5,104.5C 69.4348,104.489 65.7681,103.822 62.5,102.5 Z"/></g>
<g><path style="opacity:0.067" fill="#e3a699" d="M 80.5,130.5 C 80.5,131.833 79.8333,132.5 78.5,132.5C 78.5,131.167 79.1667,130.5 80.5,130.5 Z"/></g>
</svg>
