<?xml version="1.0" encoding="UTF-8"?>
<!DOCTYPE svg PUBLIC "-//W3C//DTD SVG 1.1//EN" "http://www.w3.org/Graphics/SVG/1.1/DTD/svg11.dtd">
<svg xmlns="http://www.w3.org/2000/svg" version="1.1" width="147px" height="147px" style="shape-rendering:geometricPrecision; text-rendering:geometricPrecision; image-rendering:optimizeQuality; fill-rule:evenodd; clip-rule:evenodd" xmlns:xlink="http://www.w3.org/1999/xlink">
<g><path style="opacity:1" fill="#161616" d="M 64.5,-0.5 C 70.1667,-0.5 75.8333,-0.5 81.5,-0.5C 121.625,7.95783 143.291,32.6245 146.5,73.5C 146.5,73.8333 146.5,74.1667 146.5,74.5C 142.021,115.646 119.354,139.646 78.5,146.5C 74.8333,146.5 71.1667,146.5 67.5,146.5C 29.289,140.286 6.62237,118.286 -0.5,80.5C -0.5,75.5 -0.5,70.5 -0.5,65.5C 5.97267,28.5668 27.6393,6.56682 64.5,-0.5 Z M 111.5,18.5 C 110.224,19.3864 110.224,20.3864 111.5,21.5C 112.107,21.3764 112.44,21.0431 112.5,20.5C 112.369,19.7611 112.536,19.0944 113,18.5C 139.53,41.1317 146.53,68.7984 134,101.5C 115.795,133.777 88.795,145.777 53,137.5C 37.4604,132.448 25.2937,123.115 16.5,109.5C 16.573,107.973 15.9063,106.973 14.5,106.5C -1.06195,74.3708 3.93805,45.8708 29.5,21C 55.0306,2.38709 81.6973,0.72042 109.5,16C 110.381,16.7083 111.047,17.5416 111.5,18.5 Z"/></g>
<g><path style="opacity:0.075" fill="#828282" d="M 14.5,106.5 C 15.9063,106.973 16.573,107.973 16.5,109.5C 15.0937,109.027 14.427,108.027 14.5,106.5 Z"/></g>
<g><path style="opacity:0.998" fill="#1a191a" d="M 61.5,88.5 C 61.5,88.8333 61.5,89.1667 61.5,89.5C 63.1667,91.8333 65.1667,93.8333 67.5,95.5C 68.713,98.2254 70.5464,100.559 73,102.5C 76.6699,97.9983 80.5032,93.665 84.5,89.5C 84.5,89.1667 84.5,88.8333 84.5,88.5C 88.1037,91.6496 91.2704,95.3162 94,99.5C 99.1263,108.255 104.626,116.755 110.5,125C 102.221,131.32 92.8873,135.32 82.5,137C 68.036,138.888 53.3693,135.888 38.5,128C 37.5,127 36.5,126 35.5,125C 40.9607,115.909 46.794,107.076 53,98.5C 55.6323,94.8381 58.4656,91.5048 61.5,88.5 Z"/></g>
<g><path style="opacity:1" fill="#c4c2c3" d="M 83.5,88.5 C 83.5,89.1667 83.8333,89.5 84.5,89.5C 80.5032,93.665 76.6699,97.9983 73,102.5C 70.5464,100.559 68.713,98.2254 67.5,95.5C 69.1477,96.8098 70.8144,98.1431 72.5,99.5C 76.4013,95.9938 80.0679,92.3272 83.5,88.5 Z"/></g>
<g><path style="opacity:1" fill="#939393" d="M 33.5,81.5 C 28.4876,88.1443 22.9876,94.4776 17,100.5C 16.5172,101.448 16.3505,102.448 16.5,103.5C 15.6554,102.329 14.9887,100.995 14.5,99.5C 15.2389,99.631 15.9056,99.4643 16.5,99C 21.8378,92.8029 27.5045,86.9696 33.5,81.5 Z"/></g>
<g><path style="opacity:1" fill="#c0bebf" d="M 61.5,89.5 C 61.8333,89.5 62.1667,89.5 62.5,89.5C 64.914,90.9108 66.5806,92.9108 67.5,95.5C 65.1667,93.8333 63.1667,91.8333 61.5,89.5 Z"/></g>
<g><path style="opacity:0.998" fill="#1a1a1a" d="M 41.5,72.5 C 43.371,72.8588 44.871,73.8588 46,75.5C 48.6924,78.6919 51.1924,82.0252 53.5,85.5C 45.182,96.4812 36.5153,107.148 27.5,117.5C 22.3884,113.931 18.7217,109.264 16.5,103.5C 16.3505,102.448 16.5172,101.448 17,100.5C 22.9876,94.4776 28.4876,88.1443 33.5,81.5C 36.5,79.1667 39.1667,76.5 41.5,73.5C 41.5,73.1667 41.5,72.8333 41.5,72.5 Z"/></g>
<g><path style="opacity:1" fill="#b5b3b4" d="M 105.5,73.5 C 113.84,81.8403 121.84,90.5069 129.5,99.5C 129.167,99.5 128.833,99.5 128.5,99.5C 120.493,91.4928 112.827,83.1594 105.5,74.5C 105.5,74.1667 105.5,73.8333 105.5,73.5 Z"/></g>
<g><path style="opacity:0.996" fill="#1c1a1b" d="M 104.5,73.5 C 104.5,74.1667 104.833,74.5 105.5,74.5C 112.827,83.1594 120.493,91.4928 128.5,99.5C 128.5,100.167 128.833,100.5 129.5,100.5C 128.151,107.275 124.485,112.942 118.5,117.5C 109.341,106.837 100.341,96.0041 91.5,85C 95.3333,80.8333 99.1667,76.6667 103,72.5C 103.383,73.056 103.883,73.3893 104.5,73.5 Z"/></g>
<g><path style="opacity:1" fill="#a4a4a4" d="M 40.5,73.5 C 40.8333,73.5 41.1667,73.5 41.5,73.5C 39.1667,76.5 36.5,79.1667 33.5,81.5C 35.0941,78.2358 37.4275,75.5691 40.5,73.5 Z"/></g>
<g><path style="opacity:0.514" fill="#6c6c6c" d="M 9.5,67.5 C 9.19845,70.0593 9.53178,72.3926 10.5,74.5C 10.5,74.8333 10.5,75.1667 10.5,75.5C 9.83333,75.5 9.5,75.8333 9.5,76.5C 8.16667,73.5 8.16667,70.5 9.5,67.5 Z"/></g>
<g><path style="opacity:1" fill="#191718" d="M 119.5,62.5 C 124.467,67.4588 129.8,72.1255 135.5,76.5C 136.316,84.2667 134.983,91.7667 131.5,99C 131.164,100.03 130.497,100.53 129.5,100.5C 129.5,100.167 129.5,99.8333 129.5,99.5C 121.84,90.5069 113.84,81.8403 105.5,73.5C 105.167,73.5 104.833,73.5 104.5,73.5C 104.343,72.1266 104.51,70.7932 105,69.5C 108.028,65.1374 111.528,61.6374 115.5,59C 116.705,60.3756 118.038,61.5423 119.5,62.5 Z"/></g>
<g><path style="opacity:1" fill="#b1afb0" d="M 119.5,62.5 C 119.833,62.5 120.167,62.5 120.5,62.5C 120.5,63.1667 120.833,63.5 121.5,63.5C 126.467,67.1322 131.133,71.1322 135.5,75.5C 135.5,75.8333 135.5,76.1667 135.5,76.5C 129.8,72.1255 124.467,67.4588 119.5,62.5 Z"/></g>
<g><path style="opacity:1" fill="#bebebe" d="M 26.5,61.5 C 26.8333,61.5 27.1667,61.5 27.5,61.5C 22.1557,66.8431 16.489,71.8431 10.5,76.5C 10.5,76.1667 10.5,75.8333 10.5,75.5C 10.5,75.1667 10.5,74.8333 10.5,74.5C 15.5625,69.7645 20.8958,65.4312 26.5,61.5 Z"/></g>
<g><path style="opacity:0.998" fill="#1b1b1b" d="M 41.5,72.5 C 40.8333,72.5 40.5,72.8333 40.5,73.5C 37.4275,75.5691 35.0941,78.2358 33.5,81.5C 27.5045,86.9696 21.8378,92.8029 16.5,99C 15.9056,99.4643 15.2389,99.631 14.5,99.5C 10.5134,92.2386 8.84672,84.5719 9.5,76.5C 9.83333,76.5 10.1667,76.5 10.5,76.5C 16.489,71.8431 22.1557,66.8431 27.5,61.5C 28.8149,60.5244 30.1482,59.5244 31.5,58.5C 34.6667,62.1667 37.8333,65.8333 41,69.5C 41.4828,70.448 41.6495,71.448 41.5,72.5 Z"/></g>
<g><path style="opacity:1" fill="#1d1b1c" d="M 135.5,75.5 C 131.133,71.1322 126.467,67.1322 121.5,63.5C 120.833,63.5 120.5,63.1667 120.5,62.5C 119.04,60.5372 117.373,58.7038 115.5,57C 119.312,51.8869 123.479,47.0535 128,42.5C 134.791,52.6516 137.291,63.6516 135.5,75.5 Z"/></g>
<g><path style="opacity:0.996" fill="#1f1f1f" d="M 26.5,61.5 C 20.8958,65.4312 15.5625,69.7645 10.5,74.5C 9.53178,72.3926 9.19845,70.0593 9.5,67.5C 9.38696,62.67 10.2203,58.0033 12,53.5C 12.7988,49.2413 14.6321,45.5746 17.5,42.5C 21.99,47.1586 26.3233,51.9919 30.5,57C 28.9586,58.3712 27.6253,59.8712 26.5,61.5 Z"/></g>
<g><path style="opacity:0.997" fill="#1a1919" d="M 84.5,88.5 C 84.1667,88.5 83.8333,88.5 83.5,88.5C 80.0679,92.3272 76.4013,95.9938 72.5,99.5C 70.8144,98.1431 69.1477,96.8098 67.5,95.5C 66.5806,92.9108 64.914,90.9108 62.5,89.5C 62.5,88.8333 62.1667,88.5 61.5,88.5C 47.9131,72.0741 33.7464,56.0741 19,40.5C 20.7947,34.9746 24.1281,30.308 29,26.5C 38.5915,34.0467 48.0915,41.7134 57.5,49.5C 60.9341,43.4072 64.1007,37.0739 67,30.5C 68.214,28.9512 69.714,27.7845 71.5,27C 75.5,26.3333 79.5,26.3333 83.5,27C 91.4265,29.4444 91.0931,31.2778 82.5,32.5C 82.1667,33.3333 81.8333,34.1667 81.5,35C 82.8203,40.1372 84.8203,44.9706 87.5,49.5C 96.9758,42.5248 106.309,35.3582 115.5,28C 117.456,28.2218 119.29,29.0552 121,30.5C 122.667,32.8333 124.333,35.1667 126,37.5C 126.667,38.5 126.667,39.5 126,40.5C 111.935,56.3916 98.1013,72.3916 84.5,88.5 Z"/></g>
<g><path style="opacity:0.02" fill="#888888" d="M 111.5,18.5 C 111.328,19.4916 111.662,20.1583 112.5,20.5C 112.44,21.0431 112.107,21.3764 111.5,21.5C 110.224,20.3864 110.224,19.3864 111.5,18.5 Z"/></g>
</svg>
