<?xml version="1.0" encoding="UTF-8"?>
<!DOCTYPE svg PUBLIC "-//W3C//DTD SVG 1.1//EN" "http://www.w3.org/Graphics/SVG/1.1/DTD/svg11.dtd">
<svg xmlns="http://www.w3.org/2000/svg" version="1.1" width="147px" height="147px" style="shape-rendering:geometricPrecision; text-rendering:geometricPrecision; image-rendering:optimizeQuality; fill-rule:evenodd; clip-rule:evenodd" xmlns:xlink="http://www.w3.org/1999/xlink">
<g><path style="opacity:1" fill="#e3322e" d="M 65.5,2.5 C 70.1667,2.5 74.8333,2.5 79.5,2.5C 81.6353,4.36895 84.3019,5.03562 87.5,4.5C 98.8008,7.03581 108.801,12.0358 117.5,19.5C 115.753,21.59 113.753,23.2567 111.5,24.5C 111.328,22.5082 111.995,20.8415 113.5,19.5C 112.167,19.1667 110.833,18.8333 109.5,18.5C 89.257,22.2869 70.5903,29.9536 53.5,41.5C 50.2533,45.6591 47.2533,49.9924 44.5,54.5C 33.1667,65.1667 21.8333,75.8333 10.5,86.5C 8.56114,92.157 9.89448,96.8236 14.5,100.5C 16.0828,102.99 17.0828,105.657 17.5,108.5C 18.9778,108.238 20.3112,108.571 21.5,109.5C 28.2808,115.891 36.2808,119.558 45.5,120.5C 44.4376,116.412 42.1043,113.079 38.5,110.5C 37.5713,109.311 37.238,107.978 37.5,106.5C 37.5,102.833 37.5,99.1667 37.5,95.5C 44.0002,87.5746 52.0002,81.5746 61.5,77.5C 64.7844,76.343 68.1177,76.1764 71.5,77C 73.9354,78.7155 76.6021,79.8821 79.5,80.5C 82.3606,90.5786 82.0272,100.579 78.5,110.5C 75.475,117.213 70.475,121.213 63.5,122.5C 61.6891,122.572 60.3557,123.405 59.5,125C 59.8361,126.03 60.5028,126.53 61.5,126.5C 63.4293,128.148 65.4293,129.815 67.5,131.5C 70.3138,132.165 73.3138,132.498 76.5,132.5C 79.9134,132.483 82.9134,131.816 85.5,130.5C 89.0108,129.356 92.3442,127.689 95.5,125.5C 96.9213,122.991 98.5879,120.657 100.5,118.5C 101.429,117.311 101.762,115.978 101.5,114.5C 98.1667,114.5 94.8333,114.5 91.5,114.5C 91.5343,110.37 92.201,106.37 93.5,102.5C 100.563,99.7922 106.897,95.7922 112.5,90.5C 114.225,87.326 115.558,83.9927 116.5,80.5C 117.167,74.5 117.833,68.5 118.5,62.5C 119.29,67.9132 120.29,73.2465 121.5,78.5C 127.14,77.995 132.473,78.995 137.5,81.5C 138.612,82.2652 139.279,83.2652 139.5,84.5C 139.5,87.1667 139.5,89.8333 139.5,92.5C 138.316,98.8814 135.982,104.881 132.5,110.5C 127.575,117.429 121.908,123.762 115.5,129.5C 109.391,133.888 102.724,137.221 95.5,139.5C 89.7148,141.798 83.7148,142.798 77.5,142.5C 67.9263,143.224 58.5929,142.224 49.5,139.5C 24.4056,130.405 9.40555,112.739 4.5,86.5C -0.220954,58.6551 8.11238,35.6551 29.5,17.5C 35.6275,13.7824 41.6275,10.1157 47.5,6.5C 50.6644,6.44221 53.6644,5.77554 56.5,4.5C 60.0122,5.0545 63.0122,4.38784 65.5,2.5 Z"/></g>
<g><path style="opacity:1" fill="#1c1a16" d="M 61.5,-0.5 C 68.8333,-0.5 76.1667,-0.5 83.5,-0.5C 126.267,10.4599 146.767,38.1265 145,82.5C 135.664,125.092 109.164,146.092 65.5,145.5C 69.2325,143.869 73.2325,142.869 77.5,142.5C 83.7148,142.798 89.7148,141.798 95.5,139.5C 102.724,137.221 109.391,133.888 115.5,129.5C 121.908,123.762 127.575,117.429 132.5,110.5C 135.982,104.881 138.316,98.8814 139.5,92.5C 140.748,91.6661 141.415,90.3328 141.5,88.5C 141.415,86.6672 140.748,85.3339 139.5,84.5C 139.279,83.2652 138.612,82.2652 137.5,81.5C 132.473,78.995 127.14,77.995 121.5,78.5C 120.29,73.2465 119.29,67.9132 118.5,62.5C 117.833,68.5 117.167,74.5 116.5,80.5C 115.558,83.9927 114.225,87.326 112.5,90.5C 106.897,95.7922 100.563,99.7922 93.5,102.5C 92.201,106.37 91.5343,110.37 91.5,114.5C 94.8333,114.5 98.1667,114.5 101.5,114.5C 101.762,115.978 101.429,117.311 100.5,118.5C 98.5879,120.657 96.9213,122.991 95.5,125.5C 92.3442,127.689 89.0108,129.356 85.5,130.5C 79.5594,131.413 73.5594,131.746 67.5,131.5C 65.4293,129.815 63.4293,128.148 61.5,126.5C 62.1667,125.167 62.8333,123.833 63.5,122.5C 70.475,121.213 75.475,117.213 78.5,110.5C 82.0272,100.579 82.3606,90.5786 79.5,80.5C 76.6021,79.8821 73.9354,78.7155 71.5,77C 68.1177,76.1764 64.7844,76.343 61.5,77.5C 52.0002,81.5746 44.0002,87.5746 37.5,95.5C 34.9348,99.1986 34.9348,102.865 37.5,106.5C 37.238,107.978 37.5713,109.311 38.5,110.5C 42.1043,113.079 44.4376,116.412 45.5,120.5C 36.2808,119.558 28.2808,115.891 21.5,109.5C 20.3112,108.571 18.9778,108.238 17.5,108.5C 17.0828,105.657 16.0828,102.99 14.5,100.5C 9.89448,96.8236 8.56114,92.157 10.5,86.5C 21.8333,75.8333 33.1667,65.1667 44.5,54.5C 47.2533,49.9924 50.2533,45.6591 53.5,41.5C 70.5903,29.9536 89.257,22.2869 109.5,18.5C 110.833,18.8333 112.167,19.1667 113.5,19.5C 111.995,20.8415 111.328,22.5082 111.5,24.5C 113.753,23.2567 115.753,21.59 117.5,19.5C 108.801,12.0358 98.8008,7.03581 87.5,4.5C 85.0948,3.2318 82.4282,2.56513 79.5,2.5C 74.8333,2.5 70.1667,2.5 65.5,2.5C 62.2727,2.67615 59.2727,3.34281 56.5,4.5C 53.6644,5.77554 50.6644,6.44221 47.5,6.5C 47.6716,5.50838 47.3382,4.84171 46.5,4.5C 51.349,2.37131 56.349,0.704646 61.5,-0.5 Z"/></g>
<g><path style="opacity:1" fill="#8a4f46" d="M 79.5,2.5 C 82.4282,2.56513 85.0948,3.2318 87.5,4.5C 84.3019,5.03562 81.6353,4.36895 79.5,2.5 Z"/></g>
<g><path style="opacity:1" fill="#875646" d="M 65.5,2.5 C 63.0122,4.38784 60.0122,5.0545 56.5,4.5C 59.2727,3.34281 62.2727,2.67615 65.5,2.5 Z"/></g>
<g><path style="opacity:1" fill="#ef332c" d="M 111.5,24.5 C 111.5,25.8333 110.833,26.5 109.5,26.5C 109.5,25.1667 110.167,24.5 111.5,24.5 Z"/></g>
<g><path style="opacity:1" fill="#d3363f" d="M 109.5,26.5 C 109.5,27.8333 108.833,28.5 107.5,28.5C 107.5,27.1667 108.167,26.5 109.5,26.5 Z"/></g>
<g><path style="opacity:1" fill="#d72533" d="M 107.5,28.5 C 107.361,30.337 106.694,30.6704 105.5,29.5C 105.957,28.7025 106.624,28.3691 107.5,28.5 Z"/></g>
<g><path style="opacity:1" fill="#d72023" d="M 101.5,30.5 C 104.167,31.1667 104.167,31.8333 101.5,32.5C 101.5,31.8333 101.5,31.1667 101.5,30.5 Z"/></g>
<g><path style="opacity:1" fill="#6f5050" d="M 101.5,30.5 C 101.5,31.1667 101.5,31.8333 101.5,32.5C 98.123,33.9015 94.7897,33.7348 91.5,32C 94.8796,31.6614 98.2129,31.1614 101.5,30.5 Z"/></g>
<g><path style="opacity:1" fill="#dd302d" d="M 47.5,60.5 C 46.8333,60.5 46.1667,60.5 45.5,60.5C 46.8069,52.1818 51.4735,47.8484 59.5,47.5C 56.5032,52.8275 52.5032,57.1608 47.5,60.5 Z"/></g>
<g><path style="opacity:1" fill="#6b1112" d="M 45.5,60.5 C 46.1667,60.5 46.8333,60.5 47.5,60.5C 47.38,61.5862 46.7133,62.2528 45.5,62.5C 42.9172,61.7582 42.9172,61.0915 45.5,60.5 Z"/></g>
<g><path style="opacity:1" fill="#b22f2e" d="M 139.5,84.5 C 140.748,85.3339 141.415,86.6672 141.5,88.5C 141.415,90.3328 140.748,91.6661 139.5,92.5C 139.5,89.8333 139.5,87.1667 139.5,84.5 Z"/></g>
<g><path style="opacity:1" fill="#9e625c" d="M 37.5,95.5 C 37.5,99.1667 37.5,102.833 37.5,106.5C 34.9348,102.865 34.9348,99.1986 37.5,95.5 Z"/></g>
<g><path style="opacity:1" fill="#282420" d="M 46.5,4.5 C 47.3382,4.84171 47.6716,5.50838 47.5,6.5C 41.6275,10.1157 35.6275,13.7824 29.5,17.5C 8.11238,35.6551 -0.220954,58.6551 4.5,86.5C 9.40555,112.739 24.4056,130.405 49.5,139.5C 58.5929,142.224 67.9263,143.224 77.5,142.5C 73.2325,142.869 69.2325,143.869 65.5,145.5C 28.6641,139.329 6.66405,117.996 -0.5,81.5C -0.5,75.5 -0.5,69.5 -0.5,63.5C 4.18837,36.9738 18.5217,17.4738 42.5,5C 43.7932,4.50999 45.1266,4.34332 46.5,4.5 Z"/></g>
<g><path style="opacity:1" fill="#721b1b" d="M 63.5,122.5 C 62.8333,123.833 62.1667,125.167 61.5,126.5C 60.5028,126.53 59.8361,126.03 59.5,125C 60.3557,123.405 61.6891,122.572 63.5,122.5 Z"/></g>
<g><path style="opacity:1" fill="#786f63" d="M 85.5,130.5 C 82.9134,131.816 79.9134,132.483 76.5,132.5C 73.3138,132.498 70.3138,132.165 67.5,131.5C 73.5594,131.746 79.5594,131.413 85.5,130.5 Z"/></g>
</svg>
