<?xml version="1.0" encoding="UTF-8"?>
<!DOCTYPE svg PUBLIC "-//W3C//DTD SVG 1.1//EN" "http://www.w3.org/Graphics/SVG/1.1/DTD/svg11.dtd">
<svg xmlns="http://www.w3.org/2000/svg" version="1.1" width="147px" height="147px" style="shape-rendering:geometricPrecision; text-rendering:geometricPrecision; image-rendering:optimizeQuality; fill-rule:evenodd; clip-rule:evenodd" xmlns:xlink="http://www.w3.org/1999/xlink">
<g><path style="opacity:0.016" fill="#000000" d="M 97.5,6.5 C 98.8333,7.16667 98.8333,7.16667 97.5,6.5 Z"/></g>
<g><path style="opacity:0.016" fill="#000000" d="M 106.5,6.5 C 107.833,7.16667 107.833,7.16667 106.5,6.5 Z"/></g>
<g><path style="opacity:0.016" fill="#000000" d="M 107.5,8.5 C 108.833,9.16667 108.833,9.16667 107.5,8.5 Z"/></g>
<g><path style="opacity:0.016" fill="#000000" d="M 98.5,10.5 C 99.8333,11.1667 99.8333,11.1667 98.5,10.5 Z"/></g>
<g><path style="opacity:0.008" fill="#010201" d="M 108.5,10.5 C 109.833,11.1667 109.833,11.1667 108.5,10.5 Z"/></g>
<g><path style="opacity:0.006" fill="#020302" d="M 100.5,14.5 C 99.475,14.1034 99.3083,13.4368 100,12.5C 100.464,13.0944 100.631,13.7611 100.5,14.5 Z"/></g>
<g><path style="opacity:1" fill="#040404" d="M 44.5,12.5 C 45.525,12.8966 45.6917,13.5632 45,14.5C 44.5357,13.9056 44.369,13.2389 44.5,12.5 Z"/></g>
<g><path style="opacity:1" fill="#000000" d="M 32.5,17.5 C 33.8333,18.1667 33.8333,18.1667 32.5,17.5 Z"/></g>
<g><path style="opacity:1" fill="#020202" d="M 31.5,22.5 C 31.3505,21.448 31.5172,20.448 32,19.5C 32.7401,20.7494 32.5735,21.7494 31.5,22.5 Z"/></g>
<g><path style="opacity:0.992" fill="#050505" d="M 82.5,135.5 C 86.0817,126.171 88.2484,116.504 89,106.5C 89.6667,91.5 89.6667,76.5 89,61.5C 86.3176,58.6503 83.4843,55.9836 80.5,53.5C 80.1667,54.1667 79.8333,54.8333 79.5,55.5C 81.9132,60.3911 82.0799,65.3911 80,70.5C 78.6409,75.9382 76.9743,81.2716 75,86.5C 74.3632,88.3031 73.1965,89.6364 71.5,90.5C 64.8809,78.7506 62.5476,66.4173 64.5,53.5C 59.9593,55.8734 56.626,59.3734 54.5,64C 54.0183,79.8207 54.5183,95.654 56,111.5C 56.8464,120.201 59.0131,128.534 62.5,136.5C 58.3702,131.303 55.8702,125.303 55,118.5C 50.5066,99.4066 48.84,80.0733 50,60.5C 54.2876,58.0417 58.121,55.0417 61.5,51.5C 58.1243,50.2895 54.791,50.4562 51.5,52C 42.711,58.4538 34.211,65.2871 26,72.5C 24.4185,78.7226 24.0852,85.0559 25,91.5C 26.3118,99.2251 27.8118,106.892 29.5,114.5C 22.2594,100.522 18.926,85.5221 19.5,69.5C 30.2131,64.4708 39.8797,57.8041 48.5,49.5C 52.6423,48.9603 56.6423,48.2937 60.5,47.5C 61.7383,47.19 61.7383,46.69 60.5,46C 58.9656,45.077 57.299,44.577 55.5,44.5C 46.5262,45.1023 38.0262,47.4356 30,51.5C 26.8269,50.5117 24.6602,48.5117 23.5,45.5C 25.4247,37.4815 28.0914,29.8148 31.5,22.5C 30.1756,30.4396 29.5089,38.4396 29.5,46.5C 37.9395,44.9735 46.2729,42.9735 54.5,40.5C 56.943,42.0553 59.6097,42.722 62.5,42.5C 62.7035,40.6096 62.0368,39.1096 60.5,38C 54.2944,37.2282 48.1278,37.3949 42,38.5C 38.7035,36.8419 37.7035,34.1752 39,30.5C 40.2678,25.3634 41.9344,20.3634 44,15.5C 43.0549,22.0732 42.5549,28.7399 42.5,35.5C 48.1306,36.2412 53.7972,36.4079 59.5,36C 66.2296,40.6763 73.563,41.6763 81.5,39C 82.9818,36.5098 85.1484,35.3431 88,35.5C 92.8032,36.2852 97.6366,36.6185 102.5,36.5C 102.489,29.1008 101.822,21.7675 100.5,14.5C 103.901,21.4311 106.068,28.7644 107,36.5C 105.093,37.9298 102.926,38.5965 100.5,38.5C 95.1845,37.5567 89.8512,37.39 84.5,38C 82.393,39.2635 81.393,41.0968 81.5,43.5C 84.4353,43.2833 87.2687,42.6166 90,41.5C 98.7129,43.6527 107.213,45.3194 115.5,46.5C 115.102,37.7288 113.936,29.0622 112,20.5C 111.705,18.0694 110.538,16.236 108.5,15C 109.126,14.2496 109.626,13.4162 110,12.5C 116.163,23.4969 119.33,35.1635 119.5,47.5C 117.668,48.2485 116.001,49.2485 114.5,50.5C 105.146,45.1618 95.1463,43.3285 84.5,45C 83.0267,45.7096 82.3601,46.8762 82.5,48.5C 86.5817,48.3436 90.5817,48.8436 94.5,50C 102.876,58.2195 112.21,65.0528 122.5,70.5C 123.442,70.3918 124.275,70.0585 125,69.5C 126.179,84.7787 123.179,99.1121 116,112.5C 117.752,104.654 119.085,96.6537 120,88.5C 120.667,84.1667 120.667,79.8333 120,75.5C 111.193,67.3315 102.026,59.4981 92.5,52C 83.0504,48.9871 81.7171,50.6537 88.5,57C 90.6504,58.4114 92.9837,59.2447 95.5,59.5C 95.764,80.5039 93.764,101.004 89.5,121C 87.624,126.17 85.2907,131.003 82.5,135.5 Z"/></g>
<g><path style="opacity:0.169" fill="#6a6a6a" d="M 60.5,47.5 C 56.6423,48.2937 52.6423,48.9603 48.5,49.5C 48.6107,48.8826 48.944,48.3826 49.5,48C 53.1516,47.5014 56.8183,47.3347 60.5,47.5 Z"/></g>
<g><path style="opacity:1" fill="#010101" d="M 114.5,113.5 C 115.525,113.897 115.692,114.563 115,115.5C 114.536,114.906 114.369,114.239 114.5,113.5 Z"/></g>
<g><path style="opacity:1" fill="#010101" d="M 29.5,114.5 C 30.3382,114.842 30.6716,115.508 30.5,116.5C 29.6618,116.158 29.3284,115.492 29.5,114.5 Z"/></g>
<g><path style="opacity:1" fill="#000000" d="M 113.5,116.5 C 114.833,117.167 114.833,117.167 113.5,116.5 Z"/></g>
<g><path style="opacity:1" fill="#050505" d="M 30.5,116.5 C 31.525,116.897 31.6917,117.563 31,118.5C 30.5357,117.906 30.369,117.239 30.5,116.5 Z"/></g>
<g><path style="opacity:0.278" fill="#050605" d="M 31.5,119.5 C 32.8333,120.167 32.8333,120.167 31.5,119.5 Z"/></g>
<g><path style="opacity:1" fill="#010201" d="M 82.5,135.5 C 82.6716,136.492 82.3382,137.158 81.5,137.5C 81.3284,136.508 81.6618,135.842 82.5,135.5 Z"/></g>
<g><path style="opacity:1" fill="#020202" d="M 62.5,136.5 C 63.3382,136.842 63.6716,137.508 63.5,138.5C 62.6618,138.158 62.3284,137.492 62.5,136.5 Z"/></g>
<g><path style="opacity:0.098" fill="#060706" d="M 81.5,137.5 C 80.8333,138.167 80.8333,138.167 81.5,137.5 Z"/></g>
<g><path style="opacity:1" fill="#000000" d="M 63.5,138.5 C 64.8333,139.167 64.8333,139.167 63.5,138.5 Z"/></g>
</svg>
