<?xml version="1.0" encoding="UTF-8"?>
<!DOCTYPE svg PUBLIC "-//W3C//DTD SVG 1.1//EN" "http://www.w3.org/Graphics/SVG/1.1/DTD/svg11.dtd">
<svg xmlns="http://www.w3.org/2000/svg" version="1.1" width="147px" height="147px" style="shape-rendering:geometricPrecision; text-rendering:geometricPrecision; image-rendering:optimizeQuality; fill-rule:evenodd; clip-rule:evenodd" xmlns:xlink="http://www.w3.org/1999/xlink">
<g><path style="opacity:1" fill="#dd2b1c" d="M 103.5,8.5 C 104.376,8.36912 105.043,8.70245 105.5,9.5C 102.107,16.0225 99.1068,22.6892 96.5,29.5C 96.6667,30.5 96.8333,31.5 97,32.5C 117.707,46.6204 124.04,65.6204 116,89.5C 103.619,111.841 84.7857,120.674 59.5,116C 53.5842,123.639 47.0842,130.806 40,137.5C 43.336,129.217 47.1694,121.051 51.5,113C 29.7322,99.043 22.5656,79.543 30,54.5C 42.0139,31.6537 60.6805,22.987 86,28.5C 91.9823,22.0141 97.8157,15.3474 103.5,8.5 Z"/></g>
<g><path style="opacity:1" fill="#f9cf1a" d="M 91.5,36.5 C 103.769,41.1017 111.435,49.7684 114.5,62.5C 114.746,68.5594 114.413,74.5594 113.5,80.5C 110.07,94.7737 101.403,104.607 87.5,110C 86.2068,110.49 84.8734,110.657 83.5,110.5C 76.891,111.423 70.2244,111.756 63.5,111.5C 65.8679,109.467 67.8679,107.133 69.5,104.5C 77.9082,95.7646 85.9082,86.7646 93.5,77.5C 90.2317,76.513 86.8984,76.1796 83.5,76.5C 84.6984,72.4277 86.1984,68.4277 88,64.5C 90.4176,61.9748 92.5842,59.3082 94.5,56.5C 96.0828,54.01 97.0828,51.3433 97.5,48.5C 94.1667,48.5 90.8333,48.5 87.5,48.5C 88.8333,44.5 90.1667,40.5 91.5,36.5 Z"/></g>
<g><path style="opacity:1" fill="#de2315" d="M 91.5,36.5 C 90.1667,40.5 88.8333,44.5 87.5,48.5C 90.8333,48.5 94.1667,48.5 97.5,48.5C 97.0828,51.3433 96.0828,54.01 94.5,56.5C 92.5842,59.3082 90.4176,61.9748 88,64.5C 86.1984,68.4277 84.6984,72.4277 83.5,76.5C 86.8984,76.1796 90.2317,76.513 93.5,77.5C 85.9082,86.7646 77.9082,95.7646 69.5,104.5C 66.3182,103.605 63.3182,104.272 60.5,106.5C 59.8076,105.975 59.3076,105.308 59,104.5C 58.6667,104.833 58.3333,105.167 58,105.5C 57.5172,104.552 57.3505,103.552 57.5,102.5C 57.3284,101.508 57.6618,100.842 58.5,100.5C 59.4345,99.4324 59.7678,98.099 59.5,96.5C 56.1667,96.5 52.8333,96.5 49.5,96.5C 54.1689,87.1654 58.8356,77.832 63.5,68.5C 64.0431,68.44 64.3764,68.1067 64.5,67.5C 62.0312,66.8319 59.6979,66.1653 57.5,65.5C 64.3413,57.014 71.008,48.3474 77.5,39.5C 78.5884,38.0656 79.9217,37.0656 81.5,36.5C 83.3079,35.0821 83.9746,33.0821 83.5,30.5C 84.8333,30.5 86.1667,30.5 87.5,30.5C 87.354,33.5539 88.6874,35.5539 91.5,36.5 Z"/></g>
<g><path style="opacity:1" fill="#f9d018" d="M 67.5,30.5 C 72.1785,30.3342 76.8452,30.5008 81.5,31C 82.5361,32.7755 82.5361,34.6089 81.5,36.5C 79.9217,37.0656 78.5884,38.0656 77.5,39.5C 71.008,48.3474 64.3413,57.014 57.5,65.5C 56.5222,65.811 55.8555,66.4777 55.5,67.5C 58.0865,68.48 60.7531,68.8134 63.5,68.5C 58.8356,77.832 54.1689,87.1654 49.5,96.5C 52.5,97.8333 55.5,99.1667 58.5,100.5C 57.6618,100.842 57.3284,101.508 57.5,102.5C 56.6091,103.261 55.9424,104.261 55.5,105.5C 53.5,106.833 51.5,106.833 49.5,105.5C 29.7439,89.6689 26.0772,70.6689 38.5,48.5C 44.7235,40.9047 52.3901,35.5714 61.5,32.5C 64.0821,32.9746 66.0821,32.3079 67.5,30.5 Z"/></g>
<g><path style="opacity:1" fill="#fea263" d="M 67.5,30.5 C 66.0821,32.3079 64.0821,32.9746 61.5,32.5C 63.3024,31.5418 65.3024,30.8751 67.5,30.5 Z"/></g>
<g><path style="opacity:1" fill="#f69c58" d="M 57.5,65.5 C 59.6979,66.1653 62.0312,66.8319 64.5,67.5C 64.3764,68.1067 64.0431,68.44 63.5,68.5C 60.7531,68.8134 58.0865,68.48 55.5,67.5C 55.8555,66.4777 56.5222,65.811 57.5,65.5 Z"/></g>
<g><path style="opacity:1" fill="#ab7a02" d="M 114.5,62.5 C 115.165,65.3138 115.498,68.3138 115.5,71.5C 115.483,74.9134 114.816,77.9134 113.5,80.5C 114.413,74.5594 114.746,68.5594 114.5,62.5 Z"/></g>
<g><path style="opacity:1" fill="#f4ab45" d="M 49.5,96.5 C 52.8333,96.5 56.1667,96.5 59.5,96.5C 59.7678,98.099 59.4345,99.4324 58.5,100.5C 55.5,99.1667 52.5,97.8333 49.5,96.5 Z"/></g>
<g><path style="opacity:1" fill="#ac7f02" d="M 83.5,110.5 C 80.572,111.82 77.2386,112.486 73.5,112.5C 69.9825,112.498 66.6491,112.165 63.5,111.5C 70.2244,111.756 76.891,111.423 83.5,110.5 Z"/></g>
</svg>
