<?xml version="1.0" standalone="no"?>
<!DOCTYPE svg PUBLIC "-//W3C//DTD SVG 20010904//EN"
 "http://www.w3.org/TR/2001/REC-SVG-20010904/DTD/svg10.dtd">
<svg version="1.0" xmlns="http://www.w3.org/2000/svg"
 width="147.000000pt" height="147.000000pt" viewBox="0 0 147.000000 147.000000"
 preserveAspectRatio="xMidYMid meet">

<g transform="translate(0.000000,147.000000) scale(0.100000,-0.100000)"
fill="#000000" stroke="none">
<path d="M797 1353 c-13 -27 -28 -59 -32 -73 -14 -47 -34 -60 -94 -60 -53 0
-182 -36 -189 -52 -2 -5 -12 -8 -23 -8 -10 0 -19 -4 -19 -8 0 -5 -12 -15 -27
-23 -32 -16 -118 -101 -148 -145 -69 -99 -112 -255 -102 -361 8 -77 17 -124
27 -148 4 -11 14 -36 21 -55 15 -40 51 -100 60 -100 4 0 15 21 26 46 l20 46
-28 81 c-74 213 0 434 188 565 60 41 213 87 213 63 0 -5 -29 -69 -65 -142 -36
-72 -65 -137 -65 -145 0 -8 -4 -14 -10 -14 -5 0 -10 -9 -10 -20 0 -11 -4 -20
-10 -20 -5 0 -10 -6 -10 -12 0 -7 -54 -123 -121 -258 -179 -362 -179 -362
-179 -376 0 -8 -3 -14 -7 -14 -5 0 -13 -11 -20 -25 l-11 -25 110 0 109 0 37
82 c20 46 60 132 87 193 l51 110 124 0 125 0 5 -39 5 -39 80 63 c44 34 87 69
95 76 12 12 2 26 -75 99 -50 47 -93 85 -97 85 -5 0 -8 -16 -8 -35 l0 -35 -91
0 c-89 0 -90 0 -83 22 12 40 155 373 163 381 11 11 23 -136 16 -187 -11 -74 7
-114 84 -183 38 -35 72 -63 75 -63 3 0 7 99 8 220 l3 221 58 -54 c31 -30 57
-57 57 -61 0 -5 9 -20 19 -35 36 -50 61 -149 61 -240 0 -130 -41 -232 -129
-324 -99 -105 -197 -147 -336 -148 -73 0 -103 4 -159 25 -37 14 -72 24 -76 21
-4 -2 -13 -18 -20 -35 -12 -28 -11 -33 6 -49 57 -54 250 -78 374 -47 184 46
335 179 400 353 61 164 40 378 -52 519 -40 60 -131 153 -175 179 l-33 19 0
118 0 118 -89 0 -89 0 -25 -47z"/>
<path d="M907 399 c-66 -60 -77 -83 -34 -75 12 3 46 5 75 5 l52 1 0 65 c0 46
-4 65 -13 65 -7 0 -43 -27 -80 -61z"/>
</g>
</svg>
